
        <svg xmlns="http://www.w3.org/2000/svg" xmlns:xlink="http://www.w3.org/1999/xlink" version="1.1" width="2913.3858267716537" 
        height="3157.48031496063" viewBox="0 0 2913.3858267716537 3157.48031496063">
			
			<g transform="scale(7.874015748031496) translate(10, 10)">
				<defs id="SvgjsDefs4762"></defs><g id="SvgjsG4763" featureKey="rootContainer" transform="matrix(1,0,0,1,0,0)" fill="#b6b7ba"><path xmlns="http://www.w3.org/2000/svg" fill-rule="evenodd" d="M5,65 L175,0 L345, 65 L175, 10 z M5,301 L175,381 L345,296 L175, 371 z"></path></g><g id="SvgjsG4764" featureKey="symbolFeature-0" transform="matrix(1.1644154858995166,0,0,1.1644154858995166,119.10246836985411,62.51979408858215)" fill="#593e2e"><path xmlns="http://www.w3.org/2000/svg" d="M63.4,51.8c0,0.2,0.1,0.4,0.2,0.5c0.3,0.3,0.7,0.3,1,0c2.4-2.4,2.4-6.3,0-8.7c-0.1-0.1-0.3-0.2-0.5-0.2  c-0.2,0-0.4,0.1-0.5,0.2s-0.2,0.3-0.2,0.5c0,0.2,0.1,0.4,0.2,0.5c1.9,1.9,1.9,4.9,0,6.7C63.5,51.5,63.4,51.7,63.4,51.8z"></path><path xmlns="http://www.w3.org/2000/svg" d="M70.5,58.9c0,0.2,0.1,0.4,0.2,0.5c0.3,0.3,0.7,0.3,1,0c3-3,4.7-7.1,4.7-11.4s-1.7-8.3-4.7-11.4c-0.1-0.1-0.3-0.2-0.5-0.2  c-0.2,0-0.4,0.1-0.5,0.2s-0.2,0.3-0.2,0.5c0,0.2,0.1,0.4,0.2,0.5c5.7,5.7,5.7,15,0,20.8C70.5,58.5,70.5,58.7,70.5,58.9z"></path><path xmlns="http://www.w3.org/2000/svg" d="M79.6,28.6c-0.1-0.1-0.3-0.2-0.5-0.2c-0.2,0-0.4,0.1-0.5,0.2c-0.1,0.1-0.2,0.3-0.2,0.5s0.1,0.4,0.2,0.5  c10.1,10.1,10.1,26.6,0,36.8c-0.1,0.1-0.2,0.3-0.2,0.5s0.1,0.4,0.2,0.5c0.3,0.3,0.7,0.3,1,0c5.2-5.2,8-12,8-19.3  C87.6,40.7,84.8,33.8,79.6,28.6z"></path><path xmlns="http://www.w3.org/2000/svg" d="M9.4,55c2.4,7.9,8.6,14.1,16.4,16.4c-2.5-2.4-4.6-6-6-10.4C15.4,59.7,11.8,57.6,9.4,55z"></path><path xmlns="http://www.w3.org/2000/svg" d="M19.2,37.3C13.2,39.4,9,43,8.5,47H18C18,43.5,18.5,40.3,19.2,37.3z"></path><path xmlns="http://www.w3.org/2000/svg" d="M19.2,58.7c-0.7-3-1.1-6.3-1.2-9.7H8.5C9,53,13.2,56.6,19.2,58.7z"></path><path xmlns="http://www.w3.org/2000/svg" d="M31.9,23.6c-4,0.6-7.6,4.7-9.7,10.7c3-0.7,6.3-1.1,9.7-1.2V23.6z"></path><path xmlns="http://www.w3.org/2000/svg" d="M20,47h11.9V35.1c-3.8,0.1-7.3,0.6-10.4,1.5C20.6,39.7,20,43.2,20,47z"></path><path xmlns="http://www.w3.org/2000/svg" d="M25.8,24.5C18,26.9,11.8,33.1,9.4,41c2.4-2.5,6-4.6,10.4-6C21.2,30.5,23.3,26.9,25.8,24.5z"></path><path xmlns="http://www.w3.org/2000/svg" d="M21.4,59.4c3.1,0.9,6.7,1.4,10.4,1.5V49H20C20,52.8,20.6,56.3,21.4,59.4z"></path><path xmlns="http://www.w3.org/2000/svg" d="M33.9,23.6v9.5c3.5,0.1,6.7,0.5,9.7,1.2C41.4,28.3,37.9,24.2,33.9,23.6z"></path><path xmlns="http://www.w3.org/2000/svg" d="M33.9,72.4c4-0.6,7.6-4.7,9.7-10.7c-3,0.7-6.3,1.1-9.7,1.2V72.4z"></path><path xmlns="http://www.w3.org/2000/svg" d="M39.9,24.5c2.5,2.4,4.6,6,6,10.4c4.4,1.4,8.1,3.5,10.4,6C54,33.1,47.8,26.9,39.9,24.5z"></path><path xmlns="http://www.w3.org/2000/svg" d="M39.9,71.5C47.8,69.1,54,62.9,56.4,55c-2.4,2.5-6,4.6-10.4,6C44.5,65.5,42.5,69.1,39.9,71.5z"></path><path xmlns="http://www.w3.org/2000/svg" d="M46.6,37.3c0.7,3,1.1,6.3,1.2,9.7h9.5C56.7,43,52.6,39.4,46.6,37.3z"></path><path xmlns="http://www.w3.org/2000/svg" d="M47.8,49c-0.1,3.5-0.5,6.7-1.2,9.7c6-2.2,10.1-5.7,10.7-9.7H47.8z"></path><path xmlns="http://www.w3.org/2000/svg" d="M31.9,72.4v-9.5c-3.5-0.1-6.7-0.5-9.7-1.2C24.3,67.7,27.8,71.8,31.9,72.4z"></path><path xmlns="http://www.w3.org/2000/svg" d="M33.9,47h11.9c-0.1-3.8-0.6-7.3-1.5-10.4c-3.1-0.9-6.7-1.4-10.4-1.5V47z"></path><path xmlns="http://www.w3.org/2000/svg" d="M33.9,60.9c3.8-0.1,7.3-0.6,10.4-1.5c0.9-3.1,1.4-6.7,1.5-10.4H33.9V60.9z"></path></g><g id="SvgjsG4765" featureKey="nameFeature-0" transform="matrix(2.177564711482359,0,0,2.177564711482359,-3.3970003061393435,145.25338705364032)" fill="#f27405"><path d="M18 15.719999999999999 q-0.52 -0.08 -0.86 -0.48 t-0.34 -0.92 l0 -2.92 q0 -0.68 0.48 -1.08 t1.12 -0.32 q3.44 0.56 6.12 2.44 q3.48 2.52 4.92 6.68 q0.24 0.68 -0.16 1.28 t-1.16 0.6 l-3.2 0 q-0.44 0 -0.8 -0.22 t-0.52 -0.62 q-0.88 -2.08 -2.68 -3.32 q-1.4 -0.88 -2.92 -1.12 z M28.12 29 q0.76 0 1.16 0.6 t0.16 1.28 q-1.44 4.16 -4.92 6.68 q-2.68 1.88 -6.12 2.44 l-0.2 0 q-0.56 0 -0.92 -0.36 q-0.48 -0.36 -0.48 -1.04 l0 -2.92 q0 -0.52 0.32 -0.92 t0.84 -0.48 q1.68 -0.24 2.96 -1.12 q1.8 -1.24 2.68 -3.32 q0.16 -0.4 0.52 -0.62 t0.8 -0.22 l3.2 0 z M13.8 10.48 q0.52 0.4 0.52 1.08 l0 3.12 q0 0.44 -0.3 0.82 t-0.74 0.54 q-0.56 0.12 -0.88 0.28 q-1.6 0.72 -2.72 1.96 q-2.28 2.56 -2.28 6.7 t2.28 6.74 q1.4 1.6 3.6 2.24 q0.44 0.12 0.74 0.5 t0.3 0.82 l0 3.16 q0 0.68 -0.52 1.08 q-0.36 0.32 -0.92 0.32 l-0.28 0 q-4.28 -0.92 -7.24 -4.16 q-3.8 -4.28 -3.8 -10.68 t3.8 -10.68 q2.96 -3.28 7.24 -4.12 q0.64 -0.16 1.2 0.28 z M58.56 10 q0.56 0 0.98 0.42 t0.42 0.98 l0 26.8 q0 0.56 -0.42 0.98 t-0.98 0.42 l-3.52 0 q-0.72 0 -1.16 -0.56 l-19.56 -26.8 q-0.24 -0.32 -0.28 -0.72 t0.14 -0.76 t0.52 -0.56 t0.74 -0.2 l3.52 0 q0.32 0 0.64 0.14 t0.48 0.42 l14.04 19.08 l0 -18.24 q0 -0.56 0.4 -0.98 t1 -0.42 l3.04 0 z M38.480000000000004 29.4 q0.56 0 0.98 0.4 t0.42 1 l0 7.4 q0 0.56 -0.42 0.98 t-0.98 0.42 l-3.04 0 q-0.56 0 -0.98 -0.42 t-0.42 -0.98 l0 -7.4 q0 -0.6 0.42 -1 t0.98 -0.4 l3.04 0 z M93.80000000000001 28.2 l6.04 9.24 q0.44 0.72 0.04 1.44 q-0.16 0.32 -0.5 0.52 t-0.7 0.2 l-3.64 0 q-0.36 0 -0.68 -0.18 t-0.48 -0.46 l-6.08 -9.64 l-7.12 0 l0 8.88 q0 0.56 -0.42 0.98 t-0.98 0.42 l-3.04 0 q-0.56 0 -0.98 -0.42 t-0.42 -0.98 l0 -13.16 q0 -0.56 0.42 -0.98 t0.98 -0.42 l12.32 0 q3.52 0 4.68 -2 q0.4 -0.64 0.4 -1.84 q0 -1.88 -1.24 -2.96 q-1.28 -1.16 -3.68 -1.16 l-12.48 0 q-0.56 0 -0.98 -0.42 t-0.42 -0.98 l0 -2.88 q0 -0.56 0.42 -0.98 t0.98 -0.42 l12.84 0 q4.68 0 7.48 2.64 q2.92 2.64 2.92 7.16 q0 2.92 -1.28 4.98 t-3.72 3.14 z M122.56000000000002 11.04 q2.44 0.92 4.4 2.96 q4.2 4.24 4.2 10.82 t-4.2 10.86 q-1.96 2.04 -4.4 2.96 q-2.52 1.04 -5.16 1.04 l-11.32 0 q-0.56 0 -0.98 -0.42 t-0.42 -0.98 l0 -2.88 q0 -0.6 0.42 -1.02 t0.98 -0.42 l11.2 0 q3.56 0 5.78 -2.6 t2.22 -6.52 t-2.22 -6.52 t-5.78 -2.6 l-11.2 0 q-0.56 0 -0.98 -0.42 t-0.42 -1.02 l0 -2.88 q0 -0.56 0.42 -0.98 t0.98 -0.42 l11.32 0 q2.64 0 5.16 1.04 z M150.76000000000002 15.719999999999999 q-0.52 -0.08 -0.86 -0.48 t-0.34 -0.92 l0 -2.92 q0 -0.68 0.48 -1.08 t1.12 -0.32 q3.44 0.56 6.12 2.44 q3.48 2.52 4.92 6.68 q0.24 0.68 -0.16 1.28 t-1.16 0.6 l-3.2 0 q-0.44 0 -0.8 -0.22 t-0.52 -0.62 q-0.88 -2.08 -2.68 -3.32 q-1.4 -0.88 -2.92 -1.12 z M160.88000000000002 29 q0.76 0 1.16 0.6 t0.16 1.28 q-1.44 4.16 -4.92 6.68 q-2.68 1.88 -6.12 2.44 l-0.2 0 q-0.56 0 -0.92 -0.36 q-0.48 -0.36 -0.48 -1.04 l0 -2.92 q0 -0.52 0.32 -0.92 t0.84 -0.48 q1.68 -0.24 2.96 -1.12 q1.8 -1.24 2.68 -3.32 q0.16 -0.4 0.52 -0.62 t0.8 -0.22 l3.2 0 z M146.56000000000003 10.48 q0.52 0.4 0.52 1.08 l0 3.12 q0 0.44 -0.3 0.82 t-0.74 0.54 q-0.56 0.12 -0.88 0.28 q-1.6 0.72 -2.72 1.96 q-2.28 2.56 -2.28 6.7 t2.28 6.74 q1.4 1.6 3.6 2.24 q0.44 0.12 0.74 0.5 t0.3 0.82 l0 3.16 q0 0.68 -0.52 1.08 q-0.36 0.32 -0.92 0.32 l-0.28 0 q-4.28 -0.92 -7.24 -4.16 q-3.8 -4.28 -3.8 -10.68 t3.8 -10.68 q2.96 -3.28 7.24 -4.12 q0.64 -0.16 1.2 0.28 z"></path></g><g id="SvgjsG4766" featureKey="sloganFeature-0" transform="matrix(1.7964283747177083,0,0,1.7964283747177083,101.70214740200458,245.6765657307293)" fill="#593e2e"><path d="M7.3 12.940000000000001 c0.02 0.04 0.06 0.06 0.1 0.06 c-0.4 0.58 -0.8 1.16 -1.44 1.5 c-0.08 0.2 -0.32 0.26 -0.58 0.42 c0.7 0.6 1.34 1.24 1.58 2.3 c0.14 0.2 0.18 0.34 0.18 0.7 c0.08 0.16 0.04 0.3 0.1 0.5 c0 0.1 -0.08 0.1 -0.06 0.2 c0.08 0.22 0.08 0.38 -0.02 0.54 c-0.02 0.1 0.06 0.08 0.04 0.14 c-0.02 0.1 -0.02 0.16 0 0.24 c-0.1 0.56 -0.24 1.06 -0.42 1.64 c-0.08 0.1 -0.14 0.16 -0.12 0.32 c-0.12 0.12 -0.28 0.34 -0.3 0.5 c-0.06 0.12 -0.14 0.2 -0.26 0.28 c0 0.04 0 0.1 0.02 0.1 c-0.34 0.48 -0.72 0.92 -1.12 1.34 c-0.04 0 -0.06 -0.02 -0.1 -0.02 c-0.06 0.04 -0.04 0.14 -0.06 0.2 c-0.96 0.68 -1.84 1.4 -3.3 1.48 c-0.04 0.02 -0.04 -0.04 -0.04 -0.08 c-0.18 0.06 -0.22 0 -0.42 0.04 c-1.08 -0.34 -1.74 -1.12 -2.06 -2.24 c0.08 -0.22 0.04 -0.36 0.1 -0.6 c-0.08 0.06 -0.2 0.12 -0.34 0.14 c-0.52 -0.2 -0.86 -0.56 -0.84 -1.3 c0.9 -3.36 2.64 -6.36 4.34 -9.14 c0.08 -0.44 0.1 -1 0.1 -1.54 c0.02 -0.06 -0.04 -0.04 -0.06 -0.06 c0 -0.04 0.06 -0.02 0.06 -0.06 c0.04 -0.34 -0.08 -0.58 -0.16 -0.88 c0.1 -0.4 0.74 -0.22 0.88 0.02 c0.04 0.36 0.2 0.7 0.14 1.1 c0.84 -1 1.7 -1.98 2.74 -2.78 c0.48 -0.24 0.92 -0.62 1.56 -0.6 c0.08 -0.02 0.06 0.06 0.12 0.06 c0.32 -0.06 0.58 0.12 0.84 0.2 c0.2 0.34 0.46 0.68 0.5 1.08 c-0.04 0.7 -0.14 1.24 -0.36 1.9 c-0.12 0.24 -0.16 0.68 -0.38 0.78 c0.02 0.18 -0.2 0.24 -0.18 0.56 c-0.1 0.02 -0.08 0.14 -0.18 0.16 c-0.1 0.32 -0.3 0.54 -0.46 0.8 c-0.04 0.06 -0.06 -0.02 -0.14 0 z M6.48 7.9 c0 -0.04 0.08 -0.02 0.08 -0.06 c-0.04 -0.06 -0.14 0.04 -0.08 0.06 z M2.44 15.34 c-0.04 0.02 0 0.04 0 0 c0.04 0.14 -0.06 0.4 -0.16 0.56 c0.02 0.26 -0.12 0.6 -0.26 0.84 c0.04 0.3 -0.3 0.48 -0.24 0.86 c-0.08 0.16 -0.22 0.4 -0.18 0.6 c0.8 -0.74 1.84 -1.36 3.02 -1.56 c0.02 0.06 0.14 0.02 0.16 0.08 c-0.82 0.18 -1.44 0.58 -1.98 1.06 c-0.04 -0.02 -0.02 -0.06 -0.06 -0.06 c-0.06 0.14 -0.26 0.14 -0.26 0.34 c-0.18 -0.04 -0.22 0.22 -0.4 0.24 c-0.04 -0.04 -0.04 -0.1 -0.08 -0.04 c-0.02 0.14 0.08 0.12 0.12 0.14 c-0.1 0.06 -0.3 0.06 -0.32 0.22 c0.02 0.08 0.08 -0.06 0.08 0.02 c-0.06 0.1 -0.18 0.3 -0.28 0.22 c0 0.12 0 0.12 -0.1 0.08 c-0.06 0.06 0.02 0.08 0.02 0.16 c-0.08 0.08 -0.22 0.18 -0.24 0.28 c-0.18 0.06 -0.18 0.34 -0.32 0.38 c-0.36 0.68 -0.82 1.46 -1.08 2.38 c-0.04 0.26 -0.12 0.6 -0.16 0.88 c0.06 0.02 0.02 0.2 0.08 0.3 c-0.02 0.16 0 0.2 0 0.38 c0.02 0.1 0.06 0.18 0.06 0.32 c0.1 0.06 0.14 0.18 0.2 0.3 c0.12 0.16 0.4 0.16 0.5 0.34 c0.22 0.02 0.3 0.02 0.5 0.04 c0.08 0.02 0.02 -0.08 0.08 -0.08 l0 0.08 c0.16 -0.02 0.34 0 0.42 -0.08 c0.02 0.02 0.04 -0.02 0 0 c0.04 -0.08 0.16 -0.06 0.2 0 c0.1 -0.16 0.36 -0.16 0.58 -0.22 c0.06 -0.1 0.18 -0.14 0.3 -0.14 c0.06 -0.06 0.14 -0.1 0.2 -0.16 c0.4 -0.16 0.76 -0.4 1.06 -0.68 c0.02 0 0.04 0.02 0.06 0.02 c0.44 -0.42 0.86 -0.86 1.28 -1.28 c0.68 -1 1.22 -2.22 1.32 -3.6 c-0.02 -0.46 -0.02 -0.9 -0.1 -1.42 c-0.04 -0.06 -0.08 -0.14 -0.06 -0.26 c-0.3 -0.66 -0.56 -1.36 -1.26 -1.62 c-0.08 -0.12 -0.2 -0.18 -0.34 -0.24 c-0.04 -0.16 -0.16 -0.26 -0.26 -0.36 c0.02 -0.1 -0.02 -0.14 -0.04 -0.18 c0.04 -0.02 0.04 -0.08 0.04 -0.14 c0.52 -0.28 1.1 -0.6 1.54 -1.08 c0.38 -0.4 0.7 -0.96 1.04 -1.46 c0.16 -0.26 0.3 -0.52 0.42 -0.78 c0.38 -0.76 0.76 -1.9 0.6 -2.96 c-0.04 -0.08 -0.1 -0.14 -0.14 -0.22 c-0.4 -0.06 -0.58 0.16 -0.94 0.18 c-0.08 0.14 -0.32 0.12 -0.38 0.28 c-0.34 0.1 -0.46 0.38 -0.76 0.52 c-0.44 0.48 -0.98 0.84 -1.32 1.4 c-0.58 0.56 -1.04 1.22 -1.48 1.92 c0 0.3 -0.08 0.52 -0.14 0.78 c0 0.1 0 0.18 0.02 0.24 c-0.14 0.16 -0.04 0.66 -0.24 0.84 c-0.04 0.3 -0.1 0.94 -0.32 1.3 l0 0.04 z M6.04 8.18 c-0.12 -0.02 -0.02 0.08 0 0 c0.12 -0.04 0.2 -0.1 0.26 -0.2 c-0.12 0.04 -0.2 0.1 -0.26 0.2 z M5.68 8.58 c0.02 -0.12 0.16 -0.12 0.2 -0.24 c-0.08 -0.04 -0.38 0.16 -0.2 0.24 z M5.56 8.56 c-0.08 0.02 -0.14 0.08 -0.18 0.14 c0.08 -0.02 0.14 -0.08 0.18 -0.14 c0.02 -0.02 -0.02 -0.04 0 0 z M5.32 8.86 c0.02 -0.08 -0.08 -0.02 -0.1 -0.06 c-0.02 0.08 0.02 0.08 0.1 0.06 z M5 9.14 c-0.16 -0.02 -0.2 0.28 -0.4 0.3 c-0.06 0.18 -0.24 0.22 -0.3 0.42 c0.26 -0.22 0.46 -0.48 0.7 -0.72 c0.02 0 0.02 0.02 0.04 0.02 c0.04 -0.12 0.14 -0.14 0.18 -0.24 c-0.12 0.02 -0.22 0.06 -0.22 0.22 z M8.44 9.8 c0 -0.02 -0.02 -0.06 0.02 -0.06 c0 0 0 0.02 0.02 0.02 l0 -0.08 l-0.08 0 c-0.02 0.04 -0.02 0.12 0.04 0.12 z M4.02 10.24 c0.08 -0.12 0.26 -0.24 0.24 -0.36 c-0.06 0.12 -0.26 0.22 -0.24 0.36 z M8.4 9.94 l0 0.06 c0.06 0.04 0.08 -0.08 0.04 -0.08 c0 0.02 -0.02 0.04 -0.04 0.02 z M8.4 10.12 c0.02 -0.04 0.06 -0.06 0 -0.08 c0 0.04 -0.04 0.06 0 0.08 z M8.38 10.26 c0.06 -0.14 -0.08 -0.08 0 0 l0 0 z M3.84 10.4 c-0.04 0.04 -0.14 0.12 -0.08 0.18 c0.02 -0.06 0.14 -0.12 0.08 -0.18 c0.06 -0.02 0.1 -0.06 0.12 -0.12 c-0.08 0 -0.1 0.06 -0.12 0.12 z M8.26 10.5 c0.06 0 0.1 -0.2 0.02 -0.16 c0.02 0.06 -0.04 0.08 -0.02 0.16 z M8.04 10.46 c0.02 0 0 -0.02 0 0 l0 0 z M8.02 10.5 c0.04 0.1 0.04 -0.1 0 0 l0 0 z M3.68 10.66 c0 -0.02 0.04 -0.04 0 -0.06 c0 0.02 -0.04 0.04 0 0.06 z M7.9 10.94 c0.06 -0.02 0.14 -0.22 0.06 -0.22 c0.02 0.1 -0.06 0.12 -0.06 0.22 z M8.2 10.98 c-0.02 -0.04 0.06 -0.12 0 -0.14 c-0.02 0.02 -0.06 0.12 0 0.14 z M8.12 11.06 c0.02 0.08 0.02 -0.1 0 0 l0 0 z M7.76 11.38 c0.02 -0.04 0.06 -0.08 0.08 -0.12 c-0.02 0 -0.04 0 -0.04 -0.02 l-0.04 0 c0.04 0.08 -0.06 0.12 0 0.14 z M7.68 11.56 c0 -0.06 0.04 -0.08 0.06 -0.12 c-0.08 -0.04 -0.1 0.1 -0.06 0.12 z M7.64 11.6 c-0.02 0.14 0.1 0.02 0 0 l0 0 z M7.54 11.84 c-0.06 0 0.02 0.1 0 0 c0.08 0.04 0.06 -0.12 0.02 -0.12 c0.02 0.08 -0.02 0.06 -0.02 0.12 z M7.44 12.08 c0.02 -0.06 0.08 -0.06 0.08 -0.14 c-0.06 0 -0.12 0.12 -0.08 0.14 z M7.62 12.14 c0.04 0.08 0.06 -0.1 0 0 l0 0 z M7.32 12.26 c-0.06 0 -0.06 0.08 -0.08 0.14 c0.06 -0.02 0.06 -0.08 0.08 -0.14 c0.06 -0.02 0.04 -0.1 0.08 -0.12 c-0.08 -0.02 -0.04 0.06 -0.08 0.12 z M-0.08 16.66 l-0.18 0.3 c0.06 0 0.04 0.06 0.1 0.04 c0.12 -0.14 0.16 -0.3 0.22 -0.5 c0.22 -0.22 0.34 -0.72 0.6 -1 c-0.02 -0.04 -0.12 -0.1 -0.06 -0.12 c0.04 0 0.02 0.04 0.06 0.04 c0.24 -0.4 0.5 -0.86 0.72 -1.34 c0.18 -0.22 0.44 -0.58 0.42 -0.82 c0.04 0.02 0.04 0.06 0.08 0.04 c0.06 -0.16 0.24 -0.32 0.22 -0.5 l0.1 0 c0 -0.12 0 -0.16 0.04 -0.28 c-0.88 1.32 -1.62 2.68 -2.32 4.14 z M7.12 12.620000000000001 c0 0 -0.02 -0.02 0 0 l0 0 z M7.2 12.8 c-0.02 0.14 0.02 -0.1 0 0 l0 0 z M2.08 13.26 c-0.02 0 -0.06 0 -0.06 0.02 c0.02 0 0.06 0 0.06 -0.02 z M1.76 14.059999999999999 c-0.18 0.22 -0.34 0.5 -0.46 0.8 c-0.02 0.02 -0.06 0.04 -0.1 0.04 c0 0.18 -0.12 0.12 -0.08 0.3 c-0.02 0 -0.04 -0.02 -0.08 -0.02 c0 0.22 -0.2 0.3 -0.22 0.58 c-0.06 -0.02 -0.08 0 -0.12 0.02 c-0.02 0.24 -0.22 0.38 -0.24 0.56 c0.02 -0.06 0 -0.08 -0.04 -0.08 c0 0.26 -0.16 0.36 -0.2 0.58 c-0.08 -0.04 -0.06 -0.02 -0.12 0.02 c0 -0.04 0.02 -0.1 -0.02 -0.1 c0 0.04 -0.08 0.14 -0.02 0.18 c0.02 -0.02 0.02 -0.08 0.04 -0.08 c-0.06 0.42 -0.24 0.48 -0.28 0.88 c-0.18 0.04 -0.14 0.16 -0.2 0.32 c-0.08 -0.1 -0.08 0.16 -0.14 0.02 c-0.06 0.08 0.02 0.14 0.02 0.22 c-0.1 0.12 -0.14 0.32 -0.14 0.52 c-0.14 0.18 -0.26 0.36 -0.32 0.6 c-0.02 -0.02 -0.02 0 -0.06 0 c0.02 0.16 0 0.18 -0.1 0.24 c0.12 0.12 0.04 0.4 -0.1 0.36 c0.08 0.2 -0.14 0.48 -0.06 0.76 c-0.06 0.04 -0.08 -0.04 -0.1 0.04 c-0.04 0.34 -0.12 0.68 -0.08 1.06 c1.26 -1.22 1.84 -3.16 2.58 -4.82 c0.34 -1.1 0.62 -2.12 0.88 -3.12 c0.02 -0.08 -0.04 -0.08 -0.02 -0.12 s0.06 -0.08 0.04 -0.18 c-0.06 0.08 -0.24 0.22 -0.26 0.42 z M6.58 13.64 c-0.02 0.14 0.1 0.02 0 0 l0 0 z M2.56 13.780000000000001 c-0.04 -0.04 0.06 -0.08 0 -0.08 c-0.02 0 -0.06 0.08 0 0.08 z M1.68 13.86 c0.08 0 0.06 -0.06 0.08 -0.1 c-0.06 0 -0.06 0.06 -0.08 0.1 z M2.48 14 c0.02 0.1 0.02 -0.1 0 0 l0 0 z M1.54 14.18 c-0.02 0 -0.04 0 -0.04 0.02 c0.02 0 0.04 0 0.04 -0.02 z M2.4 14.46 c0.08 -0.04 0.08 -0.28 0.04 -0.28 c-0.02 0.08 -0.02 0.14 -0.04 0.28 z M2.24 14.24 c-0.02 0 -0.04 0 -0.04 0.02 c0.02 0 0.04 0 0.04 -0.02 z M2.16 14.379999999999999 c0.04 0.1 0.04 -0.08 0 0 l0 0 z M2.14 14.559999999999999 c-0.06 0.02 0.04 0.12 0 0 c0.08 0 -0.02 -0.1 0 0 z M2.1 14.68 c0.04 0.08 0.06 -0.1 0 0 l0 0 z M2.28 15.059999999999999 c0.02 -0.06 0.12 -0.22 0 -0.24 c0.02 0.08 -0.06 0.18 0 0.24 z M2 15.1 l-0.02 0 c0.02 0.14 -0.14 0.28 -0.02 0.34 c0 -0.12 0.04 -0.2 0.04 -0.34 c0.04 0 0.08 -0.16 0.02 -0.18 c-0.02 0.06 -0.04 0.1 -0.02 0.18 z M1.04 14.96 c0.04 0.08 0.06 -0.1 0 0 l0 0 z M1 15.059999999999999 c0.02 0.1 0.02 -0.1 0 0 l0 0 z M0.84 15.34 c0.02 0.02 0 0 0 0 l0 0 z M2.04 15.82 c0.08 -0.16 0.2 -0.34 0.12 -0.48 c-0.02 0.2 -0.14 0.3 -0.12 0.48 z M1.88 15.68 c0 -0.06 0.1 -0.14 0.02 -0.18 c0 0.04 -0.08 0.14 -0.02 0.18 z M0.64 15.780000000000001 c0.02 0.1 0.02 -0.1 0 0 l0 0 z M1.8 15.92 c0.02 -0.02 0.06 -0.08 0 -0.1 c0.04 0.06 -0.06 0.08 0 0.1 z M0.6 15.92 c0.04 0.08 0.06 -0.1 0 0 l0 0 z M2.04 15.9 c-0.02 0 -0.04 0 -0.04 0.02 c0.02 0 0.04 0 0.04 -0.02 z M1.78 16 c0.02 0.02 0 -0.02 0 0 l0 0 z M2.02 16.14 c-0.02 -0.04 0 -0.12 -0.04 -0.14 c0.02 0.04 -0.04 0.16 0.04 0.14 z M1.76 16.16 c-0.02 -0.04 0.02 -0.12 -0.02 -0.12 c-0.02 0.06 -0.06 0.1 0.02 0.12 z M1.78 16.72 c0.12 -0.12 0.2 -0.42 0.14 -0.56 c0.02 0.18 -0.16 0.38 -0.14 0.56 z M1.66 16.36 c-0.02 0.14 0.02 -0.1 0 0 l0 0 z M0.3 16.4 c0.02 0.1 0.02 -0.1 0 0 l0 0 z M1.54 16.759999999999998 l-0.02 0 c0 0.12 -0.08 0.14 -0.08 0.26 c0.08 -0.04 0.1 -0.14 0.1 -0.26 c0.04 -0.02 0.06 -0.06 0.06 -0.12 c-0.08 -0.02 -0.04 0.08 -0.06 0.12 z M1.76 16.84 c0.04 0.08 0.06 -0.1 0 0 l0 0 z M4.06 16.84 c-0.06 0.08 0.08 -0.06 0 0 l0 0 z M1.56 17.3 c0.1 -0.06 0.22 -0.34 0.12 -0.42 c0 0.16 -0.16 0.28 -0.12 0.42 z M3.84 16.94 c0 0 0.02 0.02 0.04 0.02 c-0.02 -0.04 0.14 -0.04 0.04 -0.08 c0 0.04 -0.04 0 -0.08 0 l0 0.06 z M-0.62 17.740000000000002 l-0.02 0 c-0.04 0.22 -0.14 0.36 -0.24 0.52 c-0.16 0.76 -0.6 1.46 -0.74 2.32 c-0.06 0 -0.02 0.08 -0.02 0.12 c-0.04 0.02 -0.06 0.06 -0.06 0.12 c0.08 0.02 0.04 -0.08 0.06 -0.12 c0.04 -0.02 0.06 -0.08 0.02 -0.12 c0.28 -0.92 0.7 -1.9 1.06 -2.74 l0.02 0 c0.06 -0.32 0.46 -0.62 0.24 -0.88 c-0.02 0.26 -0.22 0.52 -0.32 0.78 z M3.72 16.98 c0.1 0.02 0.02 -0.08 0 0 c-0.04 -0.06 -0.1 0 -0.12 0.04 c0.06 0.02 0.12 0.02 0.12 -0.04 z M3.48 17.1 c0.04 0 0.06 -0.02 0.08 -0.04 c-0.04 0 -0.08 -0.02 -0.08 0.04 z M-0.14 17.22 c0.06 0.06 0.2 -0.12 0.08 -0.14 c0 0.06 -0.06 0.08 -0.08 0.14 z M3.32 17.14 c-0.06 0.02 -0.14 0.04 -0.14 0.1 c0.08 0.02 0.1 -0.04 0.14 -0.1 c0.06 0.06 0.14 0.02 0.14 -0.06 c-0.08 -0.02 -0.1 0.04 -0.14 0.06 z M3.1 17.259999999999998 c-0.08 0 -0.1 0.04 -0.12 0.08 c0.06 0 0.08 -0.04 0.12 -0.08 c0.04 0 0 -0.02 0 0 z M2.82 17.46 c0.06 0 0.16 -0.1 0.12 -0.14 c-0.02 0.06 -0.14 0.04 -0.12 0.14 z M1.5 17.48 c0.08 0.02 0.12 -0.12 0.04 -0.12 c0.02 0.08 -0.06 0.04 -0.04 0.12 z M2.72 17.5 l0.04 0 l0 -0.04 l-0.04 0 l0 0.04 z M1.28 17.5 c0.02 0.1 0.02 -0.08 0 0 l0 0 z M2.56 17.6 c0.06 0 0.1 -0.04 0.14 -0.06 l-0.12 0 c0 0.02 -0.02 0.04 -0.02 0.06 z M1.04 18.74 c0.2 -0.34 0.34 -0.74 0.48 -1.18 l-0.1 0 c-0.02 0.38 -0.36 0.78 -0.38 1.18 z M6.76 17.72 c0.02 -0.04 0.02 -0.16 -0.06 -0.16 c0.02 0.06 0.02 0.12 0.06 0.16 z M-0.3 17.62 c0.02 0 0.02 0.02 0.04 0.04 c0 -0.04 0 -0.1 -0.04 -0.08 l0 0.04 z M2.32 17.82 c0 -0.02 0 -0.02 0.02 -0.02 c0 -0.04 -0.02 -0.06 -0.06 -0.06 c0.02 0.04 0 0.08 0.04 0.08 z M2.58 17.8 c0.02 0.02 -0.02 -0.02 0 0 l0 0 z M2.22 17.86 c0.04 0.08 0.06 -0.08 0 0 l0 0 z M6.84 18.32 c-0.02 -0.12 0 -0.36 -0.08 -0.48 c0.02 0.16 0 0.38 0.08 0.48 z M2.16 17.94 c0.02 -0.02 0.06 -0.06 0 -0.08 c0 0.04 -0.04 0.06 0 0.08 z M-0.44 17.92 c-0.08 0 0 0.14 0.02 0.04 c-0.02 0 -0.02 -0.02 -0.02 -0.04 c0.02 -0.02 -0.02 -0.04 0 0 z M2.36 17.94 c0.04 0 0.06 -0.02 0.08 -0.04 c-0.04 0 -0.06 0 -0.08 0.04 z M2.1 17.94 c-0.06 0.08 0.08 -0.06 0 0 l0 0 z M1.86 18.14 c-0.1 -0.04 0 0.06 0 0 c0.04 0 0.06 -0.02 0.06 -0.06 c-0.04 0 -0.06 0.02 -0.06 0.06 z M1.66 18.3 c-0.1 -0.02 -0.12 0.14 -0.04 0.16 c0.02 -0.04 0.04 -0.08 0.04 -0.16 c0.04 0 0.06 0.02 0.1 0.02 c0.02 -0.08 -0.1 -0.1 -0.1 -0.02 z M1.96 18.3 c-0.02 0 -0.06 0 -0.06 0.02 c0.02 0 0.06 0 0.06 -0.02 z M0.9 18.62 c0.04 -0.02 0.12 -0.22 0.1 -0.3 c-0.06 0.08 -0.08 0.18 -0.1 0.3 z M-0.66 18.46 c0 -0.02 0.04 -0.04 0 -0.06 c0 0.02 -0.04 0.04 0 0.06 z M1.42 18.64 c0.14 0 -0.02 -0.16 0.12 -0.14 c0 -0.04 0.02 -0.1 -0.02 -0.1 c-0.1 0.08 -0.1 0.12 -0.1 0.24 z M6.84 18.8 c0.1 -0.02 0.08 -0.2 0 -0.24 l0 0.24 z M-0.76 18.7 c0.06 0.1 0.04 -0.08 0 0 l0 0 z M1.44 19.06 c0.04 0.1 0.04 -0.08 0 0 l0 0 z M0.8 19.26 c0.02 -0.02 0.12 -0.08 0.04 -0.12 c0.02 0.06 -0.12 0.08 -0.04 0.12 z M6.88 19.58 c-0.02 -0.12 0.1 -0.3 0 -0.34 c0 0.1 -0.08 0.24 0 0.34 z M0.78 19.36 c-0.08 0 -0.14 0.16 -0.1 0.22 c0.02 -0.08 0.08 -0.14 0.1 -0.22 l0.02 0 c0 -0.02 0 -0.02 0.02 -0.02 l0 -0.06 c-0.04 0 -0.04 0.04 -0.04 0.08 z M6.8 20.12 c0 -0.12 0.12 -0.24 0.02 -0.4 c0.02 0.16 -0.12 0.24 -0.02 0.4 z M0.8 19.84 c0.02 0.02 0 -0.02 0 0 l0 0 z M0.88 19.88 c0 -0.02 0 -0.02 0.02 -0.02 c0 -0.02 -0.02 -0.06 -0.06 -0.04 c0.02 0.02 0 0.06 0.04 0.06 z M6.54 20.14 c0.02 0.1 0.02 -0.08 0 0 l0 0 z M6.76 20.34 c0.02 -0.02 0.06 -0.14 -0.04 -0.12 c0.02 0.04 -0.02 0.12 0.04 0.12 z M6.46 20.44 c0.02 -0.06 0.1 -0.16 0.02 -0.2 c0.02 0.08 -0.08 0.14 -0.02 0.2 z M6.66 20.74 c0.02 -0.12 0.08 -0.24 0.04 -0.38 c0.02 0.08 -0.1 0.28 -0.04 0.38 z M6.4 20.8 c0 -0.02 0.06 -0.1 0 -0.1 c-0.02 0.02 -0.06 0.1 0 0.1 z M6.34 20.94 c0.02 -0.04 0.08 -0.1 0 -0.12 c0.02 0.04 -0.06 0.1 0 0.12 z M6.56 20.9 c0.02 0 0 -0.02 0 0 l0 0 z M5.86 21.94 c-0.08 0.12 -0.26 0.26 -0.22 0.42 c0.08 -0.16 0.18 -0.24 0.22 -0.42 c0.2 -0.22 0.36 -0.62 0.42 -0.9 c-0.14 0.3 -0.3 0.58 -0.42 0.9 z M6.28 21.62 c0.06 -0.1 0.2 -0.28 0.16 -0.42 c-0.06 0.14 -0.14 0.26 -0.16 0.42 z M-0.02 21.4 c-0.04 0.02 0 0.02 0 0 c0.04 -0.02 0 -0.04 0 0 z M-0.4 21.58 c0 -0.02 0 -0.04 0.02 -0.04 c0 0.02 0 0.02 0.02 0.02 c0 -0.04 0.04 -0.04 0.04 -0.1 c-0.06 0 -0.14 0.1 -0.08 0.12 z M6.2 21.82 c0 -0.04 0.08 -0.12 0.02 -0.14 c0 0.04 -0.08 0.12 -0.02 0.14 z M6 22.18 c-0.04 0.08 0.08 -0.06 0 0 l0 0 z M5.88 22.34 c0.08 0 0.06 -0.06 0.08 -0.08 c-0.06 0 -0.08 0.02 -0.08 0.08 z M4.92 23.18 c0.2 -0.04 0.16 -0.2 0.34 -0.22 c0.02 -0.06 -0.04 -0.06 -0.02 -0.12 c0.16 -0.12 0.34 -0.34 0.34 -0.54 c-0.22 0.3 -0.42 0.6 -0.66 0.88 z M5.26 23.08 c0.04 0 0.02 0.06 0.06 0.06 c0.2 -0.2 0.32 -0.5 0.56 -0.66 c0 -0.04 0 -0.1 -0.04 -0.12 c-0.18 0.26 -0.36 0.5 -0.58 0.72 z M5.04 22.64 c-0.04 0.08 0.08 -0.06 0 0 l0 0 z M4.86 22.86 c0.02 0.1 0.02 -0.1 0 0 l0 0 z M4.64 23.12 c0.02 0.02 0 0 0 0 l0 0 z M4.98 23.46 c0.08 0 0.3 -0.2 0.26 -0.34 c-0.08 0.12 -0.22 0.18 -0.26 0.34 z M4.54 23.2 c0.04 0.1 0.04 -0.1 0 0 l0 0 z M4.76 23.36 c0.06 -0.04 0.16 -0.04 0.16 -0.14 c-0.1 0 -0.12 0.08 -0.16 0.14 z M4.32 23.44 c0.08 -0.02 0.12 -0.06 0.12 -0.12 c-0.06 0 -0.06 0.08 -0.12 0.12 z M4.72 23.42 c-0.06 0.08 0.08 -0.06 0 0 l0 0 z M4.64 23.78 c0.1 -0.08 0.38 -0.2 0.26 -0.32 c-0.04 0.14 -0.22 0.16 -0.26 0.32 z M3.9 23.8 c0.1 -0.04 0.32 -0.14 0.36 -0.32 c-0.14 0.1 -0.28 0.18 -0.36 0.32 z M4.42 23.740000000000002 c0.02 -0.06 0.2 -0.1 0.12 -0.18 c-0.02 0.06 -0.18 0.12 -0.12 0.18 z M1.64 24.88 c0.84 -0.08 1.44 -0.54 2.08 -0.9 c0.02 -0.06 0.16 -0.14 0.1 -0.18 c-0.56 0.44 -1.34 0.84 -2.18 1.08 z M4.52 23.86 l0.08 0 c-0.02 -0.02 0 -0.06 -0.04 -0.06 c0 0.02 -0.04 0.04 -0.04 0.06 z M4.14 23.96 c0.06 0 0.08 -0.04 0.1 -0.06 l-0.08 0 c0 0.02 -0.02 0.04 -0.02 0.06 z M4.36 24.04 c0.06 -0.04 0.12 -0.06 0.14 -0.14 c-0.1 0 -0.14 0.04 -0.14 0.14 z M3.84 24.18 c0.08 0.02 0.1 -0.04 0.12 -0.08 c-0.02 0 -0.04 0 -0.06 -0.02 c0.02 0.06 -0.06 0.06 -0.06 0.1 z M3.66 24.259999999999998 c0 0.1 -0.18 0.02 -0.14 0.16 c0.1 -0.06 0.22 -0.08 0.28 -0.2 c-0.1 0 -0.06 0.08 -0.14 0.04 z M3.32 24.56 c0.02 -0.08 0.14 -0.06 0.16 -0.14 c-0.08 0 -0.26 0.1 -0.16 0.14 z M2.98 24.7 c0.08 -0.02 0.1 -0.04 0.2 -0.02 c0.02 -0.04 0.12 -0.12 0.04 -0.16 c0 0.14 -0.22 0.06 -0.24 0.18 z M2.84 24.78 c-0.06 0 -0.1 0 -0.1 0.04 c0.06 0.02 0.1 0 0.1 -0.04 l0.1 0 l0 -0.08 c-0.06 0 -0.08 0.04 -0.1 0.08 z M2.28 24.98 c0.18 0.06 0.32 -0.1 0.46 -0.12 c-0.12 -0.04 -0.32 0.06 -0.46 0.12 z M1.62 24.86 c-0.02 0 -0.06 0 -0.06 0.02 c0.02 0 0.06 0 0.06 -0.02 z M2.92 24.94 c0.04 0.02 0.08 0 0.08 -0.04 c-0.04 0 -0.08 0.02 -0.08 0.04 z M1.18 24.94 c0.02 0.02 0 0 0 0 l0 0 z M2.08 25.06 l0.04 0 l0 -0.04 l-0.04 0 l0 0.04 z M2.14 25.04 c0.02 0.02 0 0 0 0 l0 0 z M1.88 25.1 c0.06 0.08 0.04 -0.08 0 0 l0 0 z M2.12 12.76 c0.06 -0.1 0.04 0.08 0 0 l0 0 z M1.72 13.42 l0 0 c0 0.02 -0.02 0 0 0 z M1.92 13.879999999999999 l0 0 c0.02 0.02 0 0 0 0 z M1.86 13.9 l0.04 0 l0 0.06 l-0.04 0 l0 -0.06 z M1.38 14.08 c-0.02 0 -0.04 -0.02 0 -0.02 l0 0.02 z M1.76 14.059999999999999 c0.1 -0.02 0.06 0.08 0 0.08 l0 -0.08 z M1.3 14.14 l0 0 c0.02 0.02 0 0 0 0 z M1.66 14.26 c0.02 -0.02 0.06 -0.02 0.06 0 c-0.02 0.04 -0.02 0 -0.06 0 z M1.42 14.8 l0 0 c0.02 0.02 0 -0.02 0 0 z M0.66 15.280000000000001 c0.02 -0.1 0.02 0.1 0 0 l0 0 z M0.46 15.64 c0.06 -0.1 0.04 0.08 0 0 l0 0 z M0.34 15.86 c0.06 -0.02 0.04 0.1 -0.02 0.06 l0 -0.04 c0.02 0 0.02 -0.02 0.02 -0.02 z M0.12 16.3 l0 0 c0.02 0.02 0 0 0 0 z M-0.08 16.66 c0.02 0 0 0.04 0 0 l0 0 z M-0.32 17.18 c0.1 0 -0.04 0.14 0 0 l0 0 z M-0.48 17.5 c0.04 -0.08 0.04 0.1 0 0 l0 0 z M-0.56 17.84 c0 -0.1 0.04 -0.18 -0.06 -0.1 c0 0.08 -0.02 0.14 0.06 0.1 z M-0.8 18.2 c0.04 0 0 0.1 0 0.12 c-0.06 0 -0.02 -0.1 0 -0.12 z M2.14 18.34 l0 0 c0.02 0.02 0 0 0 0 z M0.9 24.66 l0 0 c0.02 0.02 -0.02 -0.02 0 0 z M13.525000000000002 15.66 c-0.06 0.34 0 0.56 -0.32 0.74 c-0.24 0.6 -0.82 0.88 -1.26 1.28 c-0.38 0.08 -0.84 0.34 -1.2 0.08 c-0.22 0.3 -0.24 0.66 -0.34 1.1 c0.82 0.58 2.02 -0.18 2.86 -0.44 c0.46 -0.26 0.96 -0.52 1.48 -0.74 c0.06 -0.08 0.18 -0.1 0.24 -0.16 c0.06 0.18 -0.36 0.28 -0.5 0.42 c0 0.04 0.04 0.02 0.08 0.02 c-0.56 0.5 -1.18 0.8 -1.92 1.06 c0.14 0 0.44 0 0.62 -0.1 c-0.02 0.1 -0.1 0.12 -0.18 0.16 c0 0.04 0.12 -0.02 0.08 0.06 c-0.24 0.08 -0.46 0.32 -0.58 0.24 c-0.1 0.04 -0.02 0.08 -0.06 0.14 c-0.54 0.24 -0.9 0.4 -1.6 0.4 c-0.96 -0.2 -1.08 -1.14 -0.96 -2 c0.36 -1.1 1.14 -2.32 2.24 -2.86 c0.2 -0.1 0.44 -0.06 0.64 -0.06 c0.16 0.02 0.2 0.14 0.34 0.16 c0.04 0.24 0.2 0.36 0.34 0.5 z M11.965000000000002 16.02 c0.08 0.02 0.14 -0.14 0.2 -0.06 c-0.34 0.26 -0.64 0.54 -0.9 0.88 c0.66 -0.34 1.26 -0.74 1.64 -1.34 c-0.34 0.14 -0.74 0.24 -0.94 0.52 z M11.845 16.1 c0.02 0.02 0 -0.02 0 0 l0 0 z M11.685000000000002 19.2 c0.06 0.02 0.14 -0.04 0.12 0.12 c0.1 -0.06 0.16 -0.1 0.26 0 c0.04 -0.04 -0.04 -0.12 0.04 -0.12 c0.14 0 0.38 -0.1 0.5 -0.18 c-0.3 0.16 -0.68 0.06 -0.92 0.18 z M15.065000000000001 17.48 l0 0 c0.04 0 0 -0.02 0 0 z M15.065000000000001 17.48 c0 0.04 -0.04 0.02 0 0 l0 0 z M13.205000000000002 19.04 c0.04 -0.08 0.04 0.1 0 0 l0 0 z M26.235 19.46 c-0.02 -0.04 -0.06 -0.02 -0.06 0 c-0.04 -0.02 -0.04 0.02 -0.06 0.02 c0 0.06 0.08 0 0.06 -0.02 l0.06 0 c-0.1 0.12 -0.32 0.14 -0.42 0.28 c0.16 -0.02 0.36 -0.2 0.54 -0.26 c-0.28 0.34 -0.94 0.62 -1.4 0.48 c-0.18 -0.18 -0.4 -0.36 -0.6 -0.52 c-0.12 -0.26 -0.22 -0.54 -0.2 -0.84 c0.1 -1.52 1.46 -3.6 3.06 -3.34 c0.16 0.08 0.34 0.18 0.42 0.34 c0.06 0.38 -0.2 0.5 -0.06 0.78 c-0.04 0.02 -0.06 0.04 -0.08 0.08 c-0.36 -0.02 -0.3 -0.48 -0.52 -0.62 c-1.02 0.74 -2.1 1.7 -2.1 3.26 c0.04 0.08 0.12 0.14 0.18 0.18 c1.22 -0.24 1.8 -1.12 2.68 -1.68 c0.18 0.38 -0.44 0.82 -0.58 1.12 c-0.06 -0.02 -0.4 0.2 -0.38 0.38 c-0.2 -0.1 -0.28 0.34 -0.54 0.36 z M27.395 18.36 c0.02 -0.04 0.04 -0.04 0.06 -0.08 c-0.06 -0.02 -0.12 0.06 -0.06 0.08 z M27.275000000000002 18.4 l0 0.04 c0.06 0.04 0.08 -0.08 0.04 -0.06 c0 0 -0.02 0.02 -0.04 0.02 z M27.095000000000002 18.64 c0 -0.04 0.08 -0.02 0.06 -0.08 c-0.06 -0.02 -0.12 0.06 -0.06 0.08 z M26.875 18.76 c0.06 -0.02 0.12 -0.02 0.12 -0.1 c-0.04 0.02 -0.1 0.04 -0.12 0.1 z M26.415 19.28 c-0.06 0 -0.08 0.04 -0.1 0.08 c0.06 0 0.08 -0.04 0.1 -0.08 c0.12 0.02 0.02 -0.08 0 0 z M25.235 19.88 l0.06 0 l0 -0.04 l-0.06 0 l0 0.04 z M25.515 19.86 c0.08 0.08 0.06 -0.08 0 0 l0 0 z M25.635 19.88 c0.02 0.1 0.02 -0.08 0 0 l0 0 z M27.075000000000003 18.8 c0.02 -0.08 0.02 0.1 0 0 l0 0 z M26.995 18.88 l0 0 c0.02 0.02 0 -0.02 0 0 z M26.615000000000002 19.22 l0 0 c0.02 0.02 -0.02 -0.02 0 0 z M26.715 19.22 c0.06 -0.1 0.02 0.08 0 0 l0 0 z M26.635 19.28 c-0.06 0.08 -0.12 0.16 -0.24 0.18 c0.06 -0.08 0.14 -0.14 0.24 -0.18 z M33.06 17.44 c1.04 -0.2 2.1 -0.58 2.98 -1 c0.08 0.02 0.18 -0.02 0.24 0.04 c-0.04 0.14 0.02 0.2 0.06 0.28 c-0.28 0.16 -0.54 0.34 -0.84 0.48 c-0.02 -0.06 0 -0.06 -0.02 -0.14 c-0.04 0.06 -0.1 0.1 -0.14 0 c-0.06 0.02 -0.06 0.1 -0.1 0.14 c0 0.02 0.04 0.02 0.04 0.04 c0.08 0.04 0.06 -0.04 0.06 -0.08 c0.2 0.1 -0.1 0.12 -0.12 0.24 c-0.08 0 -0.04 -0.08 -0.12 -0.06 c-0.12 0.02 0 0.18 -0.06 0.2 c-0.08 0.02 -0.04 -0.14 -0.02 -0.14 c-0.12 0.04 -0.16 0.14 -0.26 0.2 c-0.08 0.02 -0.04 -0.06 -0.1 -0.06 c-0.04 0 -0.04 0.06 -0.04 0.12 c-0.08 0.02 -0.04 -0.08 -0.08 -0.1 c-0.06 0 -0.1 0.1 -0.16 0.02 c-0.08 0.04 0.06 0.06 0.04 0.12 c-0.1 -0.06 -0.14 0.04 -0.26 -0.04 c-0.02 0.1 0.14 0.02 0.12 0.12 c-0.08 0 -0.1 0.02 -0.16 0 l0 -0.1 c-0.12 0.02 -0.12 0.02 -0.22 0.02 c-0.02 0.08 -0.02 0.1 -0.1 0.02 c-0.06 0.06 0.06 0.06 0.02 0.16 c-0.34 0.1 -1.2 0.06 -1.22 0.54 c-0.46 0.62 -0.74 1.5 -1.7 1.52 c-1.34 -0.28 -1.14 -2.38 -0.32 -3.06 c0 -0.1 0.02 -0.18 -0.02 -0.26 c0.14 -1.44 1.92 -1.26 2.54 -0.38 c0.18 0.38 0.16 0.8 -0.04 1.16 z M32.24 16.04 c-0.36 0.26 -0.98 0.4 -0.82 1 c-0.12 0.1 -0.26 0.24 -0.26 0.4 c0.26 0.14 0.72 0.18 1.04 0.14 c0.18 -0.48 0.52 -1.16 0.04 -1.54 z M32.8 16.66 c0 0.02 -0.02 0 0 0 l0 0 z M35.8 16.96 c0.02 0.08 0.02 -0.1 0 0 l0 0 z M35.519999999999996 17.1 c0.1 0.02 0.02 -0.08 0 0 l0 0 z M35.16 17.259999999999998 c-0.02 -0.06 0.04 -0.06 0.04 -0.12 c-0.14 -0.02 -0.12 0.12 -0.04 0.12 z M35.019999999999996 17.34 c0.06 0 0.1 0 0.1 -0.06 c-0.04 0 -0.04 -0.04 -0.08 -0.04 c0 0.04 -0.02 0.04 -0.02 0.1 z M34.88 17.32 l0.08 0 c0 -0.06 -0.04 -0.06 -0.08 -0.06 l0 0.06 z M34.3 17.46 c0.2 -0.04 0.4 0.02 0.6 -0.08 c-0.14 -0.02 -0.28 0 -0.4 -0.06 c0.02 0.12 -0.18 0.04 -0.2 0.14 z M32.7 17.5 c0.02 0.02 -0.02 0 0 0 l0 0 z M33.8 17.52 c0 0.18 0.3 0.1 0.36 0.04 c-0.14 -0.1 -0.22 0 -0.36 -0.04 z M33.68 17.62 c-0.12 -0.02 0.02 0.12 0.02 0.02 l0.08 0 c0 -0.06 -0.04 -0.08 -0.1 -0.06 l0 0.04 z M33.46 17.68 c-0.04 -0.02 -0.04 -0.08 -0.12 -0.06 c-0.04 0.1 0.12 0.14 0.12 0.06 z M30.84 17.7 c-0.18 0.44 -0.54 1.04 -0.28 1.68 c0.72 -0.12 0.98 -0.68 1.3 -1.2 c-0.44 -0.06 -0.72 -0.28 -1.02 -0.48 z M33.28 17.72 c0 0.02 -0.02 -0.02 0 0 l0 0 z M33.66 17.84 c0.08 0.08 0.04 -0.08 0 0 l0 0 z M33.44 17.88 c-0.02 0 -0.12 -0.04 -0.12 0 c0.04 0.04 0.1 0.1 0.12 0 z M33.46 17.88 c0.1 0.04 0.02 -0.06 0 0 l0 0 z M33.58 17.88 c0.02 0.04 0.04 0 0 0 c0 -0.02 -0.02 0.02 0 0 z M33.28 17.92 c0.06 0.08 0.02 -0.08 0 0 l0 0 z M33.12 17.96 c-0.02 0 -0.02 -0.04 -0.06 -0.02 c-0.04 0.06 0.08 0.06 0.06 0.02 z M33.68 17.62 c0.02 0 0.02 0 0.02 0.02 c0 0 -0.02 0 -0.02 -0.02 z M40.405 15.48 c0.02 0.04 0.06 0.06 0.06 0.12 c0.2 -0.02 0.3 0.06 0.42 0.12 c0 0.02 -0.04 0.02 -0.06 0.02 c0.18 0.18 0.42 0.44 0.3 0.72 c0.02 0.06 0.1 -0.08 0.16 0 c0 0.08 -0.06 0.1 -0.04 0.2 c-0.04 0.02 -0.06 -0.02 -0.14 0.02 c0.08 0.04 0.04 0.22 0.1 0.14 c0.08 0.08 -0.08 0.16 -0.1 0.22 c0.06 0 0.06 -0.04 0.12 -0.02 c-0.16 0.16 -0.1 0.4 -0.26 0.6 c0 0.02 0.06 0.02 0.1 0.02 c-0.22 0.54 -0.1 1.06 0.1 1.44 c-0.08 0.12 -0.18 0.02 -0.28 0.04 c-0.92 -0.7 -0.22 -1.98 -0.38 -3.1 c-0.32 0.2 -0.44 0.58 -0.74 0.78 c-0.22 0.44 -0.48 0.88 -0.8 1.24 c-0.38 0.62 -0.62 1.48 -1.46 1.56 c-0.6 -0.26 -0.44 -1.18 -0.18 -1.7 c0.12 -0.62 0.36 -1.14 0.56 -1.68 c0.26 0.02 0.62 0.02 0.8 0.28 c-0.1 0.3 -0.26 0.52 -0.34 0.82 c0.24 -0.16 0.32 -0.5 0.56 -0.66 c0.38 -0.52 0.66 -1.34 1.5 -1.18 z M39.965 15.7 l0.06 0 c0 -0.06 -0.02 -0.06 -0.06 -0.06 l0 0.06 z M40.245000000000005 15.7 c0.02 0 -0.02 -0.02 0 0 l0 0 z M40.105000000000004 15.780000000000001 c-0.14 0.1 -0.16 0.32 -0.34 0.36 c0 -0.02 -0.02 -0.02 -0.02 -0.04 c0 -0.06 0.08 -0.06 0.14 -0.08 c0 -0.06 0.08 -0.16 0.02 -0.2 c-0.02 0.06 -0.04 -0.04 -0.1 0 c-0.08 0.18 -0.26 0.22 -0.44 0.26 c-0.02 0.08 0.06 0.04 0.06 0.1 c-0.04 0 -0.08 0.04 -0.1 0.08 c-0.12 -0.02 -0.14 0.1 -0.18 0.16 c0.1 -0.04 0.24 -0.04 0.18 0.06 c-0.06 -0.06 -0.12 -0.02 -0.24 -0.02 c0 0.06 0.02 0.16 -0.06 0.12 c-0.02 0.12 0.1 0.08 0.12 0.16 c-0.06 0.02 -0.06 -0.04 -0.12 -0.02 c-0.02 0.06 -0.06 0.1 -0.08 0.14 c0.14 0.06 0.06 -0.1 0.18 -0.06 c-0.04 0.06 -0.04 0.14 -0.1 0.16 c0 -0.04 -0.08 -0.02 -0.1 -0.04 c-0.02 0.06 0.04 0.16 0 0.16 c-0.04 -0.02 -0.1 -0.08 -0.12 0 c0.14 0.04 0.06 0.1 0.02 0.2 c0.26 -0.02 0.14 -0.38 0.46 -0.34 c0.02 -0.06 0.06 -0.12 0.14 -0.12 c-0.04 -0.14 0.14 -0.2 0.24 -0.26 c0.06 -0.38 0.46 -0.54 0.54 -0.82 c-0.08 -0.02 -0.06 0.04 -0.1 0.04 l0 -0.06 c-0.08 0.04 -0.1 -0.04 -0.12 0.04 c0.02 0.02 0.06 0.04 0.12 0.02 z M39.925000000000004 15.76 c0.02 0.02 0 0 0 0 l0 0 z M39.865 16.240000000000002 c0.02 0.02 -0.02 0 0 0 l0 0 z M38.905 16.78 c0.1 0.02 0 -0.08 0 0 l0 0 z M38.785000000000004 17.38 c0.12 -0.02 0.02 -0.1 -0.02 -0.12 c-0.02 0.04 0.04 0.04 0.02 0.12 z M38.665000000000006 17.44 c0.04 0.08 0.06 -0.08 0 0 l0 0 z M40.685 17.62 c0.06 0.04 0.06 -0.12 0.02 -0.1 c0 0.04 -0.04 0.04 -0.02 0.1 z M40.685 17.759999999999998 l0 0.04 c0.06 0.04 0.06 -0.08 0.02 -0.06 c0 0 0 0.02 -0.02 0.02 z M40.605000000000004 17.98 c0.08 0 0.1 -0.06 0.12 -0.12 c-0.06 0 -0.14 0.02 -0.12 0.12 z M40.605000000000004 18.12 c0.06 0 0.1 -0.1 0.02 -0.1 c0 0.04 -0.02 0.06 -0.02 0.1 z M39.325 16.259999999999998 c-0.04 0.18 0.26 0.08 0.22 -0.08 c-0.06 0 -0.1 0.04 -0.1 0.12 c-0.06 0 -0.04 -0.06 -0.12 -0.04 z M39.765 16.18 c-0.08 0.04 -0.1 0.12 -0.16 0.16 c0.02 -0.08 0.06 -0.16 0.16 -0.16 z M39.565000000000005 16.38 c0.02 0.1 -0.1 0.16 -0.14 0.12 c0.06 -0.02 0.06 -0.12 0.14 -0.12 z M39.285000000000004 16.58 c-0.02 0.04 -0.04 0.08 -0.12 0.08 c0 -0.1 0.04 -0.12 0.12 -0.08 z M39.325 16.68 l0.06 0 l0 0.04 l-0.06 0 l0 -0.04 z M39.265 16.72 c0.1 0 0 0.18 -0.08 0.18 c-0.02 -0.1 0.1 -0.08 0.08 -0.18 z M41.205000000000005 16.740000000000002 c0.02 -0.08 0.02 0.1 0 0 l0 0 z M47.09 15.48 c0.02 0.04 0.06 0.06 0.06 0.12 c0.2 -0.02 0.3 0.06 0.42 0.12 c0 0.02 -0.04 0.02 -0.06 0.02 c0.18 0.18 0.42 0.44 0.3 0.72 c0.02 0.06 0.1 -0.08 0.16 0 c0 0.08 -0.06 0.1 -0.04 0.2 c-0.04 0.02 -0.06 -0.02 -0.14 0.02 c0.08 0.04 0.04 0.22 0.1 0.14 c0.08 0.08 -0.08 0.16 -0.1 0.22 c0.06 0 0.06 -0.04 0.12 -0.02 c-0.16 0.16 -0.1 0.4 -0.26 0.6 c0 0.02 0.06 0.02 0.1 0.02 c-0.22 0.54 -0.1 1.06 0.1 1.44 c-0.08 0.12 -0.18 0.02 -0.28 0.04 c-0.92 -0.7 -0.22 -1.98 -0.38 -3.1 c-0.32 0.2 -0.44 0.58 -0.74 0.78 c-0.22 0.44 -0.48 0.88 -0.8 1.24 c-0.38 0.62 -0.62 1.48 -1.46 1.56 c-0.6 -0.26 -0.44 -1.18 -0.18 -1.7 c0.12 -0.62 0.36 -1.14 0.56 -1.68 c0.26 0.02 0.62 0.02 0.8 0.28 c-0.1 0.3 -0.26 0.52 -0.34 0.82 c0.24 -0.16 0.32 -0.5 0.56 -0.66 c0.38 -0.52 0.66 -1.34 1.5 -1.18 z M46.650000000000006 15.7 l0.06 0 c0 -0.06 -0.02 -0.06 -0.06 -0.06 l0 0.06 z M46.93000000000001 15.7 c0.02 0 -0.02 -0.02 0 0 l0 0 z M46.790000000000006 15.780000000000001 c-0.14 0.1 -0.16 0.32 -0.34 0.36 c0 -0.02 -0.02 -0.02 -0.02 -0.04 c0 -0.06 0.08 -0.06 0.14 -0.08 c0 -0.06 0.08 -0.16 0.02 -0.2 c-0.02 0.06 -0.04 -0.04 -0.1 0 c-0.08 0.18 -0.26 0.22 -0.44 0.26 c-0.02 0.08 0.06 0.04 0.06 0.1 c-0.04 0 -0.08 0.04 -0.1 0.08 c-0.12 -0.02 -0.14 0.1 -0.18 0.16 c0.1 -0.04 0.24 -0.04 0.18 0.06 c-0.06 -0.06 -0.12 -0.02 -0.24 -0.02 c0 0.06 0.02 0.16 -0.06 0.12 c-0.02 0.12 0.1 0.08 0.12 0.16 c-0.06 0.02 -0.06 -0.04 -0.12 -0.02 c-0.02 0.06 -0.06 0.1 -0.08 0.14 c0.14 0.06 0.06 -0.1 0.18 -0.06 c-0.04 0.06 -0.04 0.14 -0.1 0.16 c0 -0.04 -0.08 -0.02 -0.1 -0.04 c-0.02 0.06 0.04 0.16 0 0.16 c-0.04 -0.02 -0.1 -0.08 -0.12 0 c0.14 0.04 0.06 0.1 0.02 0.2 c0.26 -0.02 0.14 -0.38 0.46 -0.34 c0.02 -0.06 0.06 -0.12 0.14 -0.12 c-0.04 -0.14 0.14 -0.2 0.24 -0.26 c0.06 -0.38 0.46 -0.54 0.54 -0.82 c-0.08 -0.02 -0.06 0.04 -0.1 0.04 l0 -0.06 c-0.08 0.04 -0.1 -0.04 -0.12 0.04 c0.02 0.02 0.06 0.04 0.12 0.02 z M46.61000000000001 15.76 c0.02 0.02 0 0 0 0 l0 0 z M46.550000000000004 16.240000000000002 c0.02 0.02 -0.02 0 0 0 l0 0 z M45.59 16.78 c0.1 0.02 0 -0.08 0 0 l0 0 z M45.470000000000006 17.38 c0.12 -0.02 0.02 -0.1 -0.02 -0.12 c-0.02 0.04 0.04 0.04 0.02 0.12 z M45.35000000000001 17.44 c0.04 0.08 0.06 -0.08 0 0 l0 0 z M47.370000000000005 17.62 c0.06 0.04 0.06 -0.12 0.02 -0.1 c0 0.04 -0.04 0.04 -0.02 0.1 z M47.370000000000005 17.759999999999998 l0 0.04 c0.06 0.04 0.06 -0.08 0.02 -0.06 c0 0 0 0.02 -0.02 0.02 z M47.290000000000006 17.98 c0.08 0 0.1 -0.06 0.12 -0.12 c-0.06 0 -0.14 0.02 -0.12 0.12 z M47.290000000000006 18.12 c0.06 0 0.1 -0.1 0.02 -0.1 c0 0.04 -0.02 0.06 -0.02 0.1 z M46.010000000000005 16.259999999999998 c-0.04 0.18 0.26 0.08 0.22 -0.08 c-0.06 0 -0.1 0.04 -0.1 0.12 c-0.06 0 -0.04 -0.06 -0.12 -0.04 z M46.45 16.18 c-0.08 0.04 -0.1 0.12 -0.16 0.16 c0.02 -0.08 0.06 -0.16 0.16 -0.16 z M46.25000000000001 16.38 c0.02 0.1 -0.1 0.16 -0.14 0.12 c0.06 -0.02 0.06 -0.12 0.14 -0.12 z M45.970000000000006 16.58 c-0.02 0.04 -0.04 0.08 -0.12 0.08 c0 -0.1 0.04 -0.12 0.12 -0.08 z M46.010000000000005 16.68 l0.06 0 l0 0.04 l-0.06 0 l0 -0.04 z M45.95 16.72 c0.1 0 0 0.18 -0.08 0.18 c-0.02 -0.1 0.1 -0.08 0.08 -0.18 z M47.89000000000001 16.740000000000002 c0.02 -0.08 0.02 0.1 0 0 l0 0 z M54.15500000000001 15.66 c-0.06 0.34 0 0.56 -0.32 0.74 c-0.24 0.6 -0.82 0.88 -1.26 1.28 c-0.38 0.08 -0.84 0.34 -1.2 0.08 c-0.22 0.3 -0.24 0.66 -0.34 1.1 c0.82 0.58 2.02 -0.18 2.86 -0.44 c0.46 -0.26 0.96 -0.52 1.48 -0.74 c0.06 -0.08 0.18 -0.1 0.24 -0.16 c0.06 0.18 -0.36 0.28 -0.5 0.42 c0 0.04 0.04 0.02 0.08 0.02 c-0.56 0.5 -1.18 0.8 -1.92 1.06 c0.14 0 0.44 0 0.62 -0.1 c-0.02 0.1 -0.1 0.12 -0.18 0.16 c0 0.04 0.12 -0.02 0.08 0.06 c-0.24 0.08 -0.46 0.32 -0.58 0.24 c-0.1 0.04 -0.02 0.08 -0.06 0.14 c-0.54 0.24 -0.9 0.4 -1.6 0.4 c-0.96 -0.2 -1.08 -1.14 -0.96 -2 c0.36 -1.1 1.14 -2.32 2.24 -2.86 c0.2 -0.1 0.44 -0.06 0.64 -0.06 c0.16 0.02 0.2 0.14 0.34 0.16 c0.04 0.24 0.2 0.36 0.34 0.5 z M52.595000000000006 16.02 c0.08 0.02 0.14 -0.14 0.2 -0.06 c-0.34 0.26 -0.64 0.54 -0.9 0.88 c0.66 -0.34 1.26 -0.74 1.64 -1.34 c-0.34 0.14 -0.74 0.24 -0.94 0.52 z M52.47500000000001 16.1 c0.02 0.02 0 -0.02 0 0 l0 0 z M52.315000000000005 19.2 c0.06 0.02 0.14 -0.04 0.12 0.12 c0.1 -0.06 0.16 -0.1 0.26 0 c0.04 -0.04 -0.04 -0.12 0.04 -0.12 c0.14 0 0.38 -0.1 0.5 -0.18 c-0.3 0.16 -0.68 0.06 -0.92 0.18 z M55.69500000000001 17.48 l0 0 c0.04 0 0 -0.02 0 0 z M55.69500000000001 17.48 c0 0.04 -0.04 0.02 0 0 l0 0 z M53.83500000000001 19.04 c0.04 -0.08 0.04 0.1 0 0 l0 0 z M59.36000000000001 19.46 c-0.02 -0.04 -0.06 -0.02 -0.06 0 c-0.04 -0.02 -0.04 0.02 -0.06 0.02 c0 0.06 0.08 0 0.06 -0.02 l0.06 0 c-0.1 0.12 -0.32 0.14 -0.42 0.28 c0.16 -0.02 0.36 -0.2 0.54 -0.26 c-0.28 0.34 -0.94 0.62 -1.4 0.48 c-0.18 -0.18 -0.4 -0.36 -0.6 -0.52 c-0.12 -0.26 -0.22 -0.54 -0.2 -0.84 c0.1 -1.52 1.46 -3.6 3.06 -3.34 c0.16 0.08 0.34 0.18 0.42 0.34 c0.06 0.38 -0.2 0.5 -0.06 0.78 c-0.04 0.02 -0.06 0.04 -0.08 0.08 c-0.36 -0.02 -0.3 -0.48 -0.52 -0.62 c-1.02 0.74 -2.1 1.7 -2.1 3.26 c0.04 0.08 0.12 0.14 0.18 0.18 c1.22 -0.24 1.8 -1.12 2.68 -1.68 c0.18 0.38 -0.44 0.82 -0.58 1.12 c-0.06 -0.02 -0.4 0.2 -0.38 0.38 c-0.2 -0.1 -0.28 0.34 -0.54 0.36 z M60.52 18.36 c0.02 -0.04 0.04 -0.04 0.06 -0.08 c-0.06 -0.02 -0.12 0.06 -0.06 0.08 z M60.400000000000006 18.4 l0 0.04 c0.06 0.04 0.08 -0.08 0.04 -0.06 c0 0 -0.02 0.02 -0.04 0.02 z M60.220000000000006 18.64 c0 -0.04 0.08 -0.02 0.06 -0.08 c-0.06 -0.02 -0.12 0.06 -0.06 0.08 z M60.00000000000001 18.76 c0.06 -0.02 0.12 -0.02 0.12 -0.1 c-0.04 0.02 -0.1 0.04 -0.12 0.1 z M59.540000000000006 19.28 c-0.06 0 -0.08 0.04 -0.1 0.08 c0.06 0 0.08 -0.04 0.1 -0.08 c0.12 0.02 0.02 -0.08 0 0 z M58.36000000000001 19.88 l0.06 0 l0 -0.04 l-0.06 0 l0 0.04 z M58.64000000000001 19.86 c0.08 0.08 0.06 -0.08 0 0 l0 0 z M58.760000000000005 19.88 c0.02 0.1 0.02 -0.08 0 0 l0 0 z M60.2 18.8 c0.02 -0.08 0.02 0.1 0 0 l0 0 z M60.120000000000005 18.88 l0 0 c0.02 0.02 0 -0.02 0 0 z M59.74 19.22 l0 0 c0.02 0.02 -0.02 -0.02 0 0 z M59.84 19.22 c0.06 -0.1 0.02 0.08 0 0 l0 0 z M59.760000000000005 19.28 c-0.06 0.08 -0.12 0.16 -0.24 0.18 c0.06 -0.08 0.14 -0.14 0.24 -0.18 z M68.265 6.0600000000000005 c-0.1 0.34 -0.08 0.78 -0.32 0.98 c-0.08 1.08 -0.6 2.12 -0.8 3.08 c0.46 0.06 1.08 0.04 1.58 0.02 c1.2 0.18 2.66 -0.08 3.84 0.58 c-0.1 0.04 -0.18 -0.02 -0.26 0.04 c-1.5 -0.54 -3.6 -0.28 -5.08 -0.5 c-0.1 0.02 -0.18 0.1 -0.2 0.22 c0 0.1 0.2 0.02 0.24 0.12 c0.02 -0.08 0.04 -0.18 0.08 -0.16 c0 0.1 0.24 0.18 0.32 0.04 c0.22 0.1 0.38 0.02 0.56 0.02 c0.06 0.02 0.04 0.1 0.08 0.14 c0.06 0 0.08 -0.02 0.08 -0.04 c0.04 0 0.02 0.04 0.04 0.04 c0.06 0 0.02 -0.08 -0.02 -0.08 c0 -0.06 0.08 0 0.08 0.04 c0.06 -0.02 -0.02 -0.08 0 -0.12 c0.24 0.3 0.66 0.06 0.94 0.2 c0.02 0 0.02 -0.02 0.02 -0.06 c0.12 0.08 0.14 -0.04 0.28 0.04 c0.06 -0.06 -0.12 -0.06 -0.12 -0.14 c0.08 0.04 0.2 0.02 0.22 0.02 c0.06 0.1 -0.04 0 -0.04 0.06 c0.26 0.18 0.62 0 0.9 0.12 c0.06 -0.02 0.1 -0.06 0.12 -0.12 c0.06 0.02 0 0.16 0.1 0.14 c0.06 -0.02 -0.04 -0.06 -0.02 -0.12 c0.06 0.08 0.18 0.14 0.14 0.24 c0.12 0 0.08 -0.04 0.08 -0.12 c0.08 0.08 0.18 -0.06 0.2 0.02 c0.06 0 0.02 -0.08 0.04 -0.12 c0.16 0.12 0.5 -0.04 0.8 0.12 c-0.2 0.06 -0.42 0.08 -0.66 0 c-0.08 0.04 -0.06 0.18 -0.18 0.16 c-0.08 0.02 -0.06 -0.08 -0.08 -0.12 c-0.06 0.14 -0.34 0.02 -0.32 0.18 c-0.1 0.02 -0.04 -0.12 -0.12 -0.12 c0 0.12 -0.06 0.06 -0.2 0.1 c0 -0.06 0.04 -0.06 0.08 -0.06 c0 -0.06 -0.14 -0.08 -0.1 0.02 c-0.06 -0.02 -0.04 -0.1 -0.14 -0.08 c-0.08 0 -0.08 0.06 -0.12 0.12 c-1.12 -0.14 -2.54 -0.1 -3.36 -0.06 c-0.1 0.04 -0.04 0.24 -0.16 0.24 c0 0.58 -0.36 1.1 -0.44 1.66 c-0.28 0.8 -0.68 1.84 -0.98 2.68 c-0.4 1.16 -1.2 1.92 -1.34 3.12 c0 0.28 0 0.52 -0.08 0.8 c0.02 0.34 0.04 0.72 -0.04 1.06 c0.02 0.96 0.1 2.06 0.76 2.62 c-0.98 -0.12 -1.2 -1.06 -1.36 -1.9 c-0.04 -0.44 -0.12 -1.08 -0.06 -1.58 c0.06 0 0.02 0.08 0.08 0.06 c0 -0.16 -0.04 -0.38 0.04 -0.48 c-0.12 0.06 -0.06 0.18 -0.1 0.26 c0 -0.36 -0.04 -0.7 0.12 -0.98 c-0.02 -0.28 0.02 -0.62 -0.16 -0.86 c0.1 -0.12 0.16 -0.28 0.28 -0.38 c0.3 -2.28 0.76 -3.96 1.32 -6.08 c-0.68 -0.12 -1.52 0.48 -2.12 0.08 c-0.1 -0.44 0 -0.94 0.5 -0.82 c0.54 -0.14 1.2 -0.14 1.9 -0.24 c0.32 -1 0.68 -2.32 1.04 -3.46 c0.38 -1.18 0.6 -2.5 1.48 -3.18 c0.78 0.06 0.9 0.94 0.68 1.7 c0.08 0.08 0.08 0.1 0.06 0.24 c0.04 0 0.02 -0.08 0.04 -0.1 c0.1 0.24 -0.18 0.44 -0.12 0.64 c-0.02 0 -0.02 -0.02 -0.06 -0.02 c-0.02 0.04 0 0.16 0.02 0.08 l0.02 0 z M67.265 5.5600000000000005 c-0.04 -0.14 -0.1 0.08 0 0 c-0.02 0.04 -0.02 0.08 -0.06 0.08 c0 -0.06 -0.02 -0.04 -0.02 0 l-0.02 0 c-0.04 0.04 -0.04 0.1 -0.02 0.16 c-0.04 0 -0.02 0.02 -0.04 0.04 l-0.02 0 c0.02 0.12 -0.12 0.22 -0.04 0.32 c0.02 -0.12 0.08 -0.18 0.06 -0.32 c0.04 0 0.02 -0.02 0.04 -0.04 l0.02 0 c0 -0.04 0 -0.06 0.02 -0.06 c-0.38 1.36 -0.9 2.96 -1.3 4.4 c0.22 0.04 0.28 -0.02 0.48 0 c0.54 -2 1.3 -3.82 1.42 -5.78 c-0.22 0.34 -0.38 0.76 -0.52 1.2 z M68.125 4.5600000000000005 c-0.08 0.08 0.08 0.08 0 0 l0 0 z M66.84500000000001 10.08 c-0.06 0.02 0.02 0.1 0 0 c0.1 -0.08 0 -0.12 -0.02 -0.2 c0.04 -0.12 0.14 -0.2 0.12 -0.36 c0.06 -0.04 0.08 0 0.14 -0.06 l0 -0.14 c-0.02 0 -0.06 0 -0.06 -0.02 c0.06 -0.12 0.04 -0.32 0.14 -0.38 c0 0.02 0 0.04 0.02 0.04 c0.02 -0.1 0.16 -0.2 0.08 -0.32 c-0.06 0.06 -0.02 0.18 -0.08 0.2 c-0.04 -0.12 0.06 -0.26 0.1 -0.36 c0.04 0 0 0.08 0.04 0.08 c0.1 -0.28 0.18 -0.46 0.24 -0.82 c-0.14 0.16 -0.14 0.6 -0.28 0.66 c0.28 -1.08 0.7 -2.2 0.84 -3.36 c0.02 0 0.02 -0.04 0 -0.04 c-0.04 -0.1 0.04 -0.12 0.06 -0.16 c-0.04 -0.02 -0.08 -0.06 -0.04 -0.1 c-0.14 0.34 -0.18 0.76 -0.22 1.1 c-0.04 0.02 -0.06 -0.02 -0.1 -0.02 c0 0.06 0.04 0.08 0.04 0.14 c-0.12 0.1 -0.28 0.52 -0.16 0.72 c-0.06 0.04 -0.08 -0.02 -0.14 0.02 c-0.22 1.16 -0.78 2.42 -0.98 3.46 c0.14 0.02 0.18 -0.08 0.24 -0.14 c0 0.04 0.02 0.04 0.02 0.06 z M67.34500000000001 5.199999999999999 c-0.02 0 0.02 0.02 0 0 c0.1 -0.04 -0.06 -0.08 0 0 z M66.905 5.359999999999999 c0.1 0.02 0 -0.08 0 0 l0 0 z M67.265 5.380000000000001 c0 0.02 -0.02 0 0 0 l0 0 z M66.86500000000001 5.4 c0.02 0.02 0 0 0 0 l0 0 z M67.905 5.460000000000001 c0.1 0.02 0 -0.08 0 0 l0 0 z M67.885 5.619999999999999 c0.02 0.1 0.02 -0.1 0 0 l0 0 z M68.245 5.68 c0.02 0 -0.02 -0.02 0 0 l0 0 z M68.22500000000001 5.699999999999999 c-0.04 0.14 0.1 0 0 0 l0 0 z M66.745 5.76 c0.02 0.02 0 0 0 0 l0 0 z M68.185 5.98 c0.04 -0.02 0.06 -0.14 0 -0.16 c0 0.08 -0.08 0.12 0 0.16 z M66.94500000000001 6.32 c0.08 0.04 0.06 -0.12 0.02 -0.12 c0.02 0.06 -0.02 0.06 -0.02 0.12 z M66.58500000000001 6.34 c-0.02 0 -0.02 0.04 -0.02 0.06 c-0.08 0.02 0.02 0.12 0 0 c0.02 0 0.02 -0.04 0.02 -0.06 c0.08 0 -0.02 -0.1 0 0 z M67.905 6.359999999999999 l0.04 0 l0 -0.04 l-0.04 0 l0 0.04 z M66.92500000000001 6.52 c0 -0.04 0.1 -0.16 0 -0.16 c0.02 0.08 -0.08 0.12 0 0.16 z M66.34500000000001 6.48 l0 0.06 c0.06 0.04 0.08 -0.08 0.02 -0.08 c0 0.02 0 0.04 -0.02 0.02 z M66.50500000000001 6.539999999999999 c0.04 0.1 0.04 -0.1 0 0 l0 0 z M68.105 6.640000000000001 c0 -0.02 0.04 -0.12 0 -0.12 c-0.02 0 -0.06 0.1 0 0.12 z M66.305 6.720000000000001 c-0.04 0.02 0 0.04 0 0 c0.04 -0.02 0.04 -0.1 0.06 -0.14 c-0.06 0 -0.06 0.08 -0.06 0.14 z M66.84500000000001 6.76 c0.02 -0.04 0.08 -0.16 0.02 -0.18 c0 0.04 -0.06 0.16 -0.02 0.18 z M67.86500000000001 6.6 c0.02 0.1 0.02 -0.08 0 0 l0 0 z M66.465 6.699999999999999 c0 0 0 -0.02 0.02 -0.02 c0 -0.02 0 -0.06 -0.04 -0.04 c0 0.02 0 0.06 0.02 0.06 z M66.42500000000001 6.92 c-0.04 -0.08 0.08 -0.16 -0.04 -0.16 c0.02 0.04 -0.02 0.16 0.04 0.16 z M67.78500000000001 6.779999999999999 l0 0.04 c0.06 0.04 0.08 -0.08 0.02 -0.06 c0 0 0 0.02 -0.02 0.02 z M66.245 6.9 c-0.02 0.02 0 0.02 0 0 l0.02 0 c-0.02 -0.08 0.04 -0.06 0.04 -0.12 c-0.08 -0.02 -0.04 0.08 -0.06 0.12 z M66.805 6.92 c0 -0.02 0.06 -0.1 0 -0.1 c0 0.02 -0.06 0.1 0 0.1 z M67.78500000000001 6.960000000000001 c0 0 0.06 -0.08 0 -0.08 c0 0 -0.06 0.08 0 0.08 z M66.22500000000001 7.039999999999999 c-0.02 -0.04 0.08 -0.08 0 -0.1 c0 0.02 -0.06 0.1 0 0.1 z M66.72500000000001 7.02 c0.1 0.02 0 -0.08 0 0 l0 0 z M67.665 7.24 c0.1 0.02 0.02 -0.12 0.12 -0.1 c-0.06 -0.06 0.06 -0.14 -0.04 -0.14 c-0.02 0.08 -0.06 0.14 -0.08 0.24 z M66.325 7.18 c0 -0.04 0.08 -0.18 0 -0.16 c0.02 0.06 -0.08 0.12 0 0.16 z M67.885 7.119999999999999 c0 -0.02 0 -0.04 0.02 -0.04 c0 -0.02 0 -0.04 -0.04 -0.04 c0 0.02 -0.02 0.06 0.02 0.08 z M66.105 7.359999999999999 c-0.08 0.04 0.08 0.06 0 0 l0.02 0 c0.02 -0.08 0.1 -0.2 0.06 -0.28 c-0.04 0.1 -0.06 0.18 -0.08 0.28 z M66.685 7.140000000000001 c0.08 0.08 0.04 -0.08 0 0 l0 0 z M66.685 7.300000000000001 c-0.02 -0.04 0.06 -0.08 0 -0.1 c0 0.02 -0.06 0.1 0 0.1 z M66.245 7.359999999999999 c-0.08 0.04 0.08 0.06 0 0 c0.08 -0.04 -0.02 -0.14 0 0 z M67.665 7.300000000000001 c0.02 0.1 0.02 -0.1 0 0 l0 0 z M66.185 7.539999999999999 c0.06 0.02 0.06 -0.04 0.06 -0.1 c-0.08 -0.02 -0.02 0.08 -0.06 0.1 z M66.605 7.5 c0.02 0.02 0 -0.02 0 0 l0 0 z M65.98500000000001 7.720000000000001 c0.08 -0.06 0.12 -0.14 0.08 -0.22 c-0.02 0.08 -0.06 0.12 -0.08 0.22 z M67.78500000000001 7.5600000000000005 l0.04 0 l0 -0.04 l-0.04 0 l0 0.04 z M66.58500000000001 7.6 c-0.04 0 0 0.02 0 0 c0.04 -0.02 0 -0.04 0 0 z M66.14500000000001 7.66 c0.04 0.1 0.04 -0.1 0 0 l0 0 z M67.545 7.720000000000001 c0.02 0 0 -0.02 0 0 l0 0 z M66.105 7.74 l0 0.04 c0.06 0.04 0.08 -0.08 0.02 -0.06 c0 0 0 0.02 -0.02 0.02 z M65.94500000000001 8 c-0.02 -0.08 0.16 -0.22 0.02 -0.26 c0.04 0.12 -0.1 0.2 -0.02 0.26 z M66.48500000000001 7.84 c0.02 0 0 -0.02 0 0 l0 0 z M67.685 7.859999999999999 c-0.02 0.14 0.02 -0.1 0 0 l0 0 z M66.08500000000001 7.880000000000001 l0 0 c0.04 -0.12 -0.06 0.12 0 0 z M66.06500000000001 8.04 c0 0 0 -0.02 0.02 -0.02 c0 -0.02 -0.02 -0.06 -0.06 -0.04 c0.02 0.02 0 0.06 0.04 0.06 z M65.84500000000001 8.2 c0.06 0 0.1 -0.12 0.04 -0.16 c-0.02 0.04 0 0.12 -0.04 0.16 z M66.42500000000001 8.08 c-0.02 0.14 0 -0.1 0 0 l0 0 z M65.965 8.4 c0.02 -0.06 0.08 -0.18 0.02 -0.24 c0.02 0.1 -0.08 0.2 -0.02 0.24 z M65.665 8.76 c-0.12 0.4 -0.32 1.02 -0.38 1.4 c0.14 -0.38 0.38 -1.06 0.38 -1.4 c0.08 -0.14 0.2 -0.36 0.18 -0.54 c-0.1 0.1 -0.14 0.38 -0.18 0.54 z M66.36500000000001 8.28 c-0.06 0.08 0.08 -0.04 0 0 l0 0 z M65.905 8.48 l-0.02 0 c-0.04 0.24 -0.12 0.34 -0.14 0.58 c0.08 -0.1 0.16 -0.38 0.16 -0.58 c0.04 -0.02 0 -0.02 0 0 z M66.00500000000001 8.48 c-0.02 0.14 0.02 -0.1 0 0 l0 0 z M66.305 8.48 c0 0.02 -0.02 0 0 0 l0 0 z M66.305 8.64 c-0.02 -0.02 0 -0.08 -0.04 -0.08 c-0.02 0.02 -0.02 0.08 0.04 0.08 z M66.20500000000001 8.84 c0.02 0.02 -0.02 0 0 0 l0 0 z M66.185 8.94 c0 0.02 -0.02 -0.02 0 0 l0 0 z M67.165 9.04 c0.02 0.02 0.02 0 0 0 c-0.02 -0.04 -0.04 0 0 0 z M65.42500000000001 10.16 c0.16 -0.34 0.22 -0.68 0.34 -1.06 l-0.06 0 c-0.08 0.42 -0.24 0.72 -0.28 1.06 z M66.08500000000001 9.22 c0.08 0.02 0.04 -0.08 0.06 -0.1 c-0.06 -0.02 -0.02 0.08 -0.06 0.1 z M67.08500000000001 9.28 c0.02 0 0 -0.02 0 0 l0 0 z M66.00500000000001 9.54 c-0.02 0.02 0 0.02 0 0 c0.04 -0.02 0.04 -0.06 0.06 -0.1 c-0.08 -0.02 -0.04 0.06 -0.06 0.1 z M65.94500000000001 9.82 c0 0 0.04 -0.1 0 -0.12 c0.02 0.06 -0.08 0.1 0 0.12 z M66.965 9.72 c0.02 0.02 0 0 0 0 l0 0 z M66.92500000000001 9.88 c-0.06 0.08 0.08 -0.06 0 0 l0 0 z M65.885 9.92 c-0.02 0.14 0.02 -0.1 0 0 l0 0 z M66.665 10.44 c0 0.04 0.02 0 0 0 c0 -0.04 0.08 -0.04 0.06 -0.12 c-0.06 0 -0.18 -0.04 -0.24 0.04 c0.12 0.04 -0.1 0 -0.02 0.18 c0.06 0 0.06 -0.08 0.16 -0.04 c0 -0.04 0.02 -0.04 0.04 -0.06 z M66.105 10.44 c0 -0.04 -0.04 -0.06 -0.08 -0.08 c-0.1 0.04 -0.16 0 -0.2 0.06 c0.1 -0.02 0.06 0.12 0.2 0.1 c0.04 -0.06 -0.06 -0.1 0 -0.12 c0.02 0.04 0.04 0.04 0.04 0.1 c0.08 0.04 0.26 -0.04 0.18 -0.14 c0 0.12 -0.06 0.02 -0.14 -0.04 c-0.04 0.06 0.08 0.1 0 0.12 z M66.745 10.36 c0.02 0 0 -0.02 0 0 l0 0 z M68.125 10.62 c0.08 0.08 0.04 -0.08 0 0 l0 0 z M66.545 10.66 c0.02 0 0.02 0.02 0.04 0.02 c0 -0.02 0 -0.08 -0.04 -0.06 l0 0.04 z M70.78500000000001 10.8 c0 -0.04 -0.02 -0.06 -0.04 -0.06 c0 0.04 -0.02 0.08 0.04 0.06 z M70.64500000000001 10.8 l0.04 0 l0 -0.04 l-0.04 0 l0 0.04 z M69.265 10.86 c0.02 -0.06 -0.04 -0.04 -0.06 -0.08 c0 0.06 0.02 0.08 0.06 0.08 z M69.44500000000001 10.84 c0.02 0.08 0.02 -0.1 0 0 l0 0 z M66.06500000000001 12.6 c0.06 -0.02 0 -0.06 0.06 -0.12 c-0.02 0.02 -0.06 0.02 -0.06 -0.02 c0.08 -0.14 0.22 -0.26 0.14 -0.48 c0.06 -0.02 0.06 0 0.12 -0.04 c0.02 -0.18 0.06 -0.4 0.14 -0.5 c-0.06 -0.02 -0.08 -0.22 0.02 -0.24 l0 0.04 c-0.06 0 0.02 0.1 0 0 c0.06 -0.06 0.06 -0.24 0 -0.28 c-0.04 0.02 -0.1 0 -0.18 0.02 c-0.1 0.56 -0.38 0.96 -0.44 1.42 c-0.14 0.26 -0.28 0.6 -0.34 0.96 l-0.06 -0.06 c-0.04 0.1 0.04 0.24 0 0.26 c-0.06 0.02 0 -0.1 -0.08 -0.06 c-0.08 0.48 -0.3 0.8 -0.44 1.26 c0.1 -0.06 0.06 -0.06 0.16 0 c0.16 -0.5 0.44 -0.98 0.6 -1.44 c0.06 0 -0.02 0.12 0.04 0.1 c0 -0.04 0.02 -0.06 0.04 -0.06 c0.02 -0.1 -0.08 -0.06 -0.06 -0.16 c0.06 0.02 0.08 0.06 0.12 0 c-0.06 -0.08 -0.06 -0.26 0.06 -0.16 c0.08 -0.12 -0.08 -0.08 -0.06 -0.22 c0.06 0 0.04 0.06 0.06 0.06 c0.08 -0.08 -0.06 -0.1 0 -0.16 c0.04 0.02 0.06 0.04 0.1 0.06 c0 -0.08 0.04 -0.1 0.06 -0.18 z M65.625 11.02 c-0.34 1.12 -0.48 2.2 -0.86 3.26 c0.08 0.18 -0.14 0.36 -0.02 0.46 c0.48 -1.24 0.98 -2.54 1.34 -3.74 c-0.22 -0.04 -0.32 0.04 -0.46 0.02 z M64.665 12.4 c-0.14 0.22 -0.26 0.54 -0.16 0.74 c0.2 -0.64 0.34 -1.46 0.52 -2.04 l-0.08 0 c-0.1 0.54 -0.26 0.78 -0.28 1.3 z M65.045 11.38 c0.08 -0.02 0.16 -0.24 0.08 -0.26 c-0.04 0.1 -0.06 0.2 -0.08 0.26 z M64.94500000000001 11.94 c0.02 -0.2 0.2 -0.44 0.08 -0.54 c0.02 0.2 -0.18 0.38 -0.08 0.54 z M64.86500000000001 12.04 c0.1 0.02 0 -0.08 0 0 l0 0 z M64.86500000000001 12.16 c0.06 0.02 0.06 -0.12 0 -0.08 l0 0.08 z M64.86500000000001 12.24 c0.02 0.1 0.02 -0.08 0 0 l0 0 z M64.745 12.76 c-0.04 0 0 0.02 0 0 l0.02 0 c0.04 -0.1 0.04 -0.24 0.06 -0.34 c-0.08 0.04 -0.1 0.24 -0.08 0.34 z M64.665 13.14 c-0.02 -0.12 0.1 -0.22 0.02 -0.32 c-0.02 0.08 -0.1 0.28 -0.02 0.32 z M64.745 13 c0 0 -0.02 -0.02 0 0 l0 0 z M64.58500000000001 13.36 c0 -0.08 0.1 -0.18 0 -0.2 c0 0.06 -0.04 0.12 0 0.2 z M64.08500000000001 14.8 c-0.02 0.02 0 0.06 -0.04 0.06 c-0.04 -0.12 -0.08 0.08 0 0 c0.04 0.16 -0.08 0.06 -0.1 0.1 c0.02 0.02 0.06 0.02 0.08 0.04 c-0.12 0.32 -0.24 0.6 -0.2 0.9 c-0.08 0.04 -0.06 0.12 -0.08 0.28 c-0.04 0.04 -0.08 0.2 -0.02 0.3 c-0.04 -0.04 -0.08 -0.02 -0.06 0.04 c0.02 0 0.06 0 0.06 0.02 c0 0.08 -0.1 0.1 -0.12 0.18 c0.02 0.02 0.08 0 0.08 0.04 c-0.08 0 -0.12 0.1 -0.02 0.12 c-0.06 0.04 -0.16 0.16 -0.06 0.22 c-0.04 -0.12 0.14 -0.14 0.06 -0.22 c0 -0.06 0.02 -0.02 0.04 -0.02 c0.14 -0.9 0.28 -1.4 0.38 -2.06 c0.12 -0.6 0.36 -1.04 0.34 -1.62 c-0.08 0.14 -0.08 0.44 -0.16 0.58 c0.1 0.1 -0.14 0.2 -0.04 0.34 c-0.04 0.02 -0.06 -0.08 -0.06 0.02 c0.1 0.14 -0.18 0.52 -0.14 0.68 l0.06 0 z M64.525 13.440000000000001 c0.02 0.02 -0.02 0 0 0 l0 0 z M64.465 13.76 c0.04 -0.12 0.1 -0.16 0.04 -0.26 c0.02 0.1 -0.1 0.18 -0.04 0.26 z M65.665 13.559999999999999 c0.02 -0.02 0.06 -0.04 0 -0.06 c0 0.02 -0.04 0.06 0 0.06 z M65.605 13.74 c-0.06 0.08 0.08 -0.06 0 0 l0 0 z M64.405 13.98 c0.06 0 0.04 -0.08 0.06 -0.12 c-0.06 -0.02 -0.06 0.04 -0.06 0.12 z M64.385 14.04 c0.1 0.04 0 -0.06 0 0 l0 0 z M64.28500000000001 14.5 l-0.02 0 c0 0.14 -0.1 0.18 -0.04 0.3 c-0.1 0.08 -0.06 0.3 -0.12 0.42 c0.14 -0.1 0.06 -0.28 0.12 -0.42 c0.08 -0.04 0.04 -0.16 0.06 -0.3 c0.08 -0.04 0.08 -0.26 0.06 -0.36 c-0.02 0.12 -0.06 0.3 -0.06 0.36 z M64.905 14.879999999999999 c0 -0.02 0.04 -0.04 0 -0.06 c0 0.02 -0.04 0.06 0 0.06 z M65.025 14.84 c0.02 0.02 0 0 0 0 l0 0 z M64.885 15.059999999999999 c0.02 0.1 0.02 -0.1 0 0 l0 0 z M64.105 15.3 c0.02 0.02 0 -0.02 0 0 l0 0 z M64.08500000000001 15.4 c0.04 0.08 0.04 -0.1 0 0 l0 0 z M63.98500000000001 15.96 c0 -0.1 0.14 -0.28 0.08 -0.42 c-0.02 0.12 -0.12 0.3 -0.08 0.42 z M63.90500000000001 16.44 c0.02 -0.14 0.14 -0.28 0.04 -0.4 c-0.02 0.16 -0.08 0.26 -0.04 0.4 z M63.345000000000006 18.52 l0 0 c0.1 0 -0.02 0.14 0 0 z M63.36500000000001 18.8 c0.02 -0.06 0.06 -0.1 -0.02 -0.12 c0.02 0.04 -0.02 0.12 0.02 0.12 z M63.54500000000001 18.8 c0.1 0.02 0 -0.08 0 0 l0 0 z M63.345000000000006 18.9 c0 -0.04 0.04 -0.06 0 -0.08 c0 0.04 -0.04 0.06 0 0.08 z M63.54500000000001 18.9 c0.06 0.1 0.02 -0.08 0 0 l0 0 z M63.50500000000001 19.06 c0.08 0.04 0.08 -0.1 0.04 -0.1 c0 0.06 -0.04 0.06 -0.04 0.1 z M63.32500000000001 19.14 c0.06 0 0.1 -0.04 0.1 -0.1 c-0.06 0 -0.1 0.04 -0.1 0.1 z M63.50500000000001 19.52 c-0.02 0.14 0.02 -0.1 0 0 l0 0 z M63.48500000000001 19.62 c0.04 0.08 0.06 -0.1 0 0 l0 0 z M63.32500000000001 19.8 c-0.02 -0.02 0.02 -0.12 -0.02 -0.12 c-0.02 0.06 -0.06 0.12 0.02 0.12 z M63.50500000000001 19.92 c0 -0.04 0.04 -0.16 -0.04 -0.14 c0.02 0.04 0 0.12 0.04 0.14 z M63.36500000000001 19.96 c-0.02 -0.1 0.06 -0.14 -0.02 -0.16 c0.02 0.08 -0.06 0.14 0.02 0.16 z M63.48500000000001 20.2 c0.02 -0.06 0.04 -0.16 0 -0.22 c-0.02 0.02 -0.04 0.18 0 0.22 z M63.345000000000006 20.02 c0.02 0.1 0.02 -0.1 0 0 l0 0 z M63.345000000000006 20.2 c-0.02 0.1 0.08 0 0 0 c-0.02 -0.06 0.08 -0.08 0 -0.1 c0 0.02 -0.04 0.02 -0.04 0.04 c0.02 0.02 0 0.06 0.04 0.06 z M63.48500000000001 20.6 c-0.02 -0.12 0.04 -0.28 -0.02 -0.36 c0.02 0.16 -0.06 0.26 0.02 0.36 z M63.36500000000001 20.4 c0 -0.02 0.04 -0.12 -0.02 -0.12 c-0.04 0.04 -0.04 0.12 0.02 0.12 z M63.32500000000001 20.52 c-0.02 0.16 0.02 -0.08 0 0 l0 0 z M63.465 20.64 c-0.04 0.24 0.08 0.26 0 0 l0 0 z M68.465 4.4399999999999995 l0 0 c-0.02 0.16 0 -0.08 0 0 z M68.42500000000001 4.619999999999999 c0.04 -0.08 0.08 0.08 0 0 l0 0 z M68.125 5 c-0.04 0 -0.02 0.04 0 0.04 l0 -0.04 z M68.385 5.140000000000001 c-0.02 -0.18 0.08 -0.08 0 0 l0 0 z M68.385 5.140000000000001 c0 0.04 -0.04 0.02 0 0 l0 0 z M67.185 5.640000000000001 l0.02 0 c0 0.04 0.02 0.1 -0.02 0.1 l0 -0.1 z M68.265 6.0600000000000005 c0 -0.04 0.04 -0.02 0 0 l0 0 z M67.78500000000001 6.18 c0.04 -0.08 0.08 0.08 0 0 l0 0 z M67.765 6.24 c0.08 0.1 -0.06 0.14 0 0 l0 0 z M67.70500000000001 6.4 c0.04 0 0.06 0.02 0.06 0.06 c-0.06 0.02 -0.04 -0.02 -0.06 -0.06 z M67.625 6.82 c0 -0.06 0.1 0.02 0 0 l0 0 z M67.56500000000001 7.039999999999999 c-0.02 -0.1 0.08 0 0 0 l0 0 z M67.56500000000001 7.039999999999999 c0.02 0.1 -0.06 0 0 0 l0 0 z M67.34500000000001 7.779999999999999 c0.04 -0.1 0.04 0.1 0 0 l0 0 z M67.22500000000001 8.04 l0.06 0 l0 0.1 l-0.06 0 l0 -0.1 z M67.165 8.34 l0 0 c0.02 0.02 -0.02 -0.02 0 0 z M67.045 8.82 l0 0 c0.02 0.02 -0.02 -0.02 0 0 z M66.965 9.4 l0.06 0 l0 0.04 c-0.02 0 -0.02 0.02 -0.04 0.02 l-0.04 0 l0 -0.04 c0.02 0 0.02 -0.02 0.02 -0.02 z M67.92500000000001 10.4 c-0.16 0.08 -0.12 -0.06 0 0 l0 0 z M68.385 10.6 c-0.06 -0.04 -0.08 -0.1 -0.1 -0.18 c0.06 0.04 0.08 0.1 0.1 0.18 z M69.025 10.44 c0.04 -0.08 0.08 0.08 0 0 l0 0 z M69.185 10.44 c0.1 0.02 0.16 0.04 0.18 0.12 c-0.1 0 -0.12 -0.12 -0.16 0 c-0.08 0.04 -0.04 -0.1 -0.02 -0.12 z M69.965 10.48 c0.08 -0.02 0.02 0.08 0.08 0.08 c-0.04 0.08 -0.06 -0.06 -0.08 -0.08 z M68.665 10.52 l0 0 c0.02 0.02 0 0 0 0 z M68.745 10.5 c0.04 0 0.06 0.02 0.1 0.02 c0 0.04 -0.14 0.04 -0.1 -0.02 z M70.265 10.52 c0 -0.02 0.04 -0.02 0.06 -0.02 l0 0.06 c-0.02 0 -0.04 -0.04 -0.06 -0.04 z M70.405 10.5 c0.06 0 0.06 0.08 0.02 0.12 c-0.06 0 0 -0.08 -0.02 -0.12 z M68.965 10.54 c0.04 -0.08 0.08 0.08 0 0 l0 0 z M69.06500000000001 10.54 c0.02 -0.1 0.02 0.1 0 0 l0 0 z M69.44500000000001 10.54 c0.02 -0.1 0.02 0.1 0 0 l0 0 z M70.105 10.52 c0.02 0.02 0.04 0.02 0.08 0.02 c0 0.04 -0.08 0.02 -0.08 0.08 c-0.06 -0.02 0.04 -0.06 0 -0.1 z M69.92500000000001 10.56 l0 0 c-0.02 -0.02 -0.04 0.02 0 0 z M69.92500000000001 10.56 l0 0 c0.02 0.04 0.02 0 0 0 z M70.665 10.6 c0.04 -0.08 0.06 0.08 0 0 l0 0 z M71.025 10.6 c0.04 0 0.06 0.04 0.04 0.08 c-0.04 0 -0.04 -0.04 -0.04 -0.08 z M71.125 10.6 c0.02 0 0.04 0.04 0.04 0.08 c-0.04 0 -0.04 -0.04 -0.04 -0.08 z M72.185 10.76 c0.02 -0.1 0.02 0.1 0 0 l0 0 z M71.605 10.86 c0.02 -0.1 0.02 0.1 0 0 l0 0 z M71.48500000000001 10.9 c0 -0.06 0.1 0.02 0 0 l0 0 z M66.22500000000001 11.84 c0.06 -0.06 0 0.22 0 0 l0 0 z M65.98500000000001 12.16 c0 -0.08 0.1 0.02 0 0 l0 0 z M66.06500000000001 12.6 c-0.04 0 -0.06 -0.04 -0.04 -0.04 s0.04 0.02 0.04 0.04 z M65.525 13.4 l0 0 c0.02 0.02 0 0 0 0 z M65.06500000000001 14.620000000000001 l0 0 c0.02 0.02 0 0 0 0 z M63.82500000000001 15.780000000000001 c0.02 -0.1 0.02 0.1 0 0 l0 0 z M63.80500000000001 16.02 l0 0 c0.02 0.02 -0.02 -0.02 0 0 z M63.745000000000005 16.18 c0.04 0 0.02 0.04 0 0 l0 0 z M63.32500000000001 18.42 l0 0 c0.02 0.02 -0.02 -0.02 0 0 z M63.30500000000001 21.18 l0 0.06 c-0.04 0 -0.06 -0.02 -0.06 -0.06 l0.06 0 z M71.65 15.66 c-0.06 0.34 0 0.56 -0.32 0.74 c-0.24 0.6 -0.82 0.88 -1.26 1.28 c-0.38 0.08 -0.84 0.34 -1.2 0.08 c-0.22 0.3 -0.24 0.66 -0.34 1.1 c0.82 0.58 2.02 -0.18 2.86 -0.44 c0.46 -0.26 0.96 -0.52 1.48 -0.74 c0.06 -0.08 0.18 -0.1 0.24 -0.16 c0.06 0.18 -0.36 0.28 -0.5 0.42 c0 0.04 0.04 0.02 0.08 0.02 c-0.56 0.5 -1.18 0.8 -1.92 1.06 c0.14 0 0.44 0 0.62 -0.1 c-0.02 0.1 -0.1 0.12 -0.18 0.16 c0 0.04 0.12 -0.02 0.08 0.06 c-0.24 0.08 -0.46 0.32 -0.58 0.24 c-0.1 0.04 -0.02 0.08 -0.06 0.14 c-0.54 0.24 -0.9 0.4 -1.6 0.4 c-0.96 -0.2 -1.08 -1.14 -0.96 -2 c0.36 -1.1 1.14 -2.32 2.24 -2.86 c0.2 -0.1 0.44 -0.06 0.64 -0.06 c0.16 0.02 0.2 0.14 0.34 0.16 c0.04 0.24 0.2 0.36 0.34 0.5 z M70.09000000000002 16.02 c0.08 0.02 0.14 -0.14 0.2 -0.06 c-0.34 0.26 -0.64 0.54 -0.9 0.88 c0.66 -0.34 1.26 -0.74 1.64 -1.34 c-0.34 0.14 -0.74 0.24 -0.94 0.52 z M69.97000000000001 16.1 c0.02 0.02 0 -0.02 0 0 l0 0 z M69.81000000000002 19.2 c0.06 0.02 0.14 -0.04 0.12 0.12 c0.1 -0.06 0.16 -0.1 0.26 0 c0.04 -0.04 -0.04 -0.12 0.04 -0.12 c0.14 0 0.38 -0.1 0.5 -0.18 c-0.3 0.16 -0.68 0.06 -0.92 0.18 z M73.19000000000001 17.48 l0 0 c0.04 0 0 -0.02 0 0 z M73.19000000000001 17.48 c0 0.04 -0.04 0.02 0 0 l0 0 z M71.33000000000001 19.04 c0.04 -0.08 0.04 0.1 0 0 l0 0 z M81.61500000000001 8.6 c-0.02 0.02 -0.02 0.08 -0.04 0.12 c0.04 0.06 0.06 -0.1 0.12 -0.08 c-0.02 0.08 -0.02 0.18 -0.14 0.16 c0.2 0.3 -0.32 0.52 -0.18 0.82 c-0.02 -0.02 -0.08 -0.02 -0.08 0.02 c0 0.06 0.08 0.02 0.08 0.06 c-0.12 0.06 -0.08 0.16 -0.2 0.24 c0 0.02 0.02 0.02 0.02 0.06 c0.1 0.02 0.02 -0.14 0.14 -0.12 c-0.02 0.08 -0.04 0.16 -0.08 0.22 c-0.04 0.04 -0.06 -0.02 -0.12 0.02 c-0.02 0.1 0.06 0.08 0.06 0.16 c-0.1 -0.04 -0.04 0.06 -0.12 0.04 c0 0.1 0.06 0.02 0.1 0.08 c-0.04 0.12 -0.04 0.12 -0.06 0.24 c-0.04 0 -0.08 0.04 -0.14 0.04 c0 0.08 0.1 0.06 0.08 0.16 c-0.08 0.04 -0.06 -0.04 -0.1 -0.04 c-0.06 0.08 0 0.14 -0.08 0.2 c0.06 0 0.06 -0.06 0.12 -0.04 c0 0.1 -0.14 0.08 -0.18 0.12 c0 0.34 0.04 0.56 -0.12 0.82 c-0.14 -0.08 -0.14 0.1 -0.18 0.2 c0.02 0.08 0.1 -0.06 0.08 0.04 c-0.04 0.04 -0.02 0.04 -0.1 0.02 c0.1 0.24 -0.04 0.7 -0.32 0.7 c-0.06 -0.04 0.08 -0.1 0 -0.16 c-0.12 0 0.02 0.12 -0.12 0.14 c0.08 0.04 0.18 0.1 0.24 0.08 c0.02 0.14 -0.1 0.16 -0.08 0.3 c-0.08 0 -0.14 0 -0.12 0.08 c-0.12 -0.02 0.02 0.12 0 0 c0.02 0 0.02 -0.04 0.06 -0.02 c-0.04 0.04 -0.06 0.12 -0.02 0.2 c-0.14 0.1 -0.1 0.38 -0.26 0.46 c0 -0.04 0 -0.08 -0.06 -0.06 c-0.06 0.14 -0.1 0.24 -0.14 0.38 c0.2 0 0.08 0.56 -0.18 0.66 l0 0.28 c-0.08 -0.02 -0.04 0.04 -0.12 0.06 c-0.02 0.08 0.08 0.04 0.04 0.12 c-0.08 -0.02 -0.08 -0.06 -0.14 0 c-0.02 0.1 0.04 0.14 0.04 0.22 c-0.04 0.04 -0.04 -0.02 -0.1 -0.02 c-0.02 0.02 -0.04 0.06 -0.06 0.1 s0.1 -0.02 0.06 0.06 c-0.02 0.02 -0.08 0.02 -0.12 0.06 c0.1 0.22 -0.12 0.4 -0.24 0.42 c0.14 0.18 -0.06 0.26 -0.02 0.38 c-0.12 0 -0.08 0.18 -0.22 0.16 c0.04 0.08 0.02 0.08 -0.04 0.12 c0.12 0.26 0.18 0.48 0.16 0.8 c0.2 0.3 0.24 0.74 0.46 1.02 c0.04 -0.02 0.06 -0.04 0.06 -0.08 c0.12 0.18 0.56 0.3 0.76 0.12 c1.88 -0.32 2.88 -1.54 4.06 -2.56 c-0.18 0.66 -0.48 1.34 -1.06 1.62 c0.04 0.1 0.14 -0.02 0.22 -0.02 c-0.02 0.1 -0.14 0.1 -0.18 0.18 c0.02 0.04 0.1 -0.02 0.1 -0.04 c0.1 0.12 -0.16 0.06 -0.14 0.18 c-0.04 0 -0.02 -0.08 -0.1 -0.06 c-0.08 0.04 0.06 0.06 0.02 0.12 c-0.18 0.14 -0.2 0.18 -0.36 0.34 c-0.24 -0.08 -0.4 0.32 -0.68 0.36 c-0.04 0.04 0 0.04 0 0.1 c-0.42 0.22 -0.88 0.36 -1.32 0.56 c-0.12 -0.04 -0.26 -0.12 -0.34 0 c-1.2 0.06 -1.7 -0.92 -2.06 -1.84 c-0.48 0.86 -1.04 1.84 -2.14 2.14 c-0.32 -0.02 -0.68 -0.1 -0.78 -0.4 c-0.04 -0.02 -0.04 0.04 -0.12 0.02 c-0.14 -0.12 -0.12 -0.4 -0.2 -0.52 c0.04 -1.62 0.82 -3.82 2.56 -3.32 c0.02 0.6 -0.1 0.98 -0.46 1.36 c-0.04 0 -0.02 -0.06 -0.1 -0.04 c-0.08 -0.2 0.02 -0.54 -0.06 -0.8 c-0.1 0 -0.12 0.06 -0.2 0.08 c-0.4 0.94 -0.9 1.74 -0.88 2.86 c0.94 -0.54 1.44 -1.5 2.06 -2.36 c-0.06 -0.32 -0.1 -0.74 0.02 -0.9 c0.02 -0.08 -0.06 -0.06 -0.04 -0.12 c0 -0.06 0.04 -0.08 0.04 -0.12 c-0.02 -0.66 0.18 -1.44 0.22 -2.1 c0 -0.08 0.06 -0.1 0.08 -0.14 c0.52 -3.2 1.52 -6.52 3.02 -9.28 c0.18 -0.08 0.6 -0.22 0.74 -0.04 c0.86 0.16 0.56 1.42 0.32 2.02 c-0.02 -0.08 0.06 -0.18 0 -0.24 c-0.04 0.12 -0.06 0.24 -0.08 0.36 c0.06 0.08 0.02 -0.1 0.1 -0.06 c-0.02 0.14 0 0.26 -0.1 0.36 c0.14 0.16 -0.14 0.48 -0.02 0.54 c-0.08 0.04 -0.06 0.18 -0.14 0.2 c0 0.02 0.02 0.04 0.06 0.04 c-0.02 0.06 -0.04 0.14 -0.12 0.14 c0.16 0.12 -0.12 0.28 0 0.34 c-0.08 0 -0.08 0.16 -0.16 0.12 c-0.02 0.08 0.08 0.06 0.06 0.14 c-0.08 0.1 -0.1 0.32 -0.26 0.42 c0.02 0.02 0.08 0.02 0.12 0.04 c-0.02 0.06 -0.12 0.06 -0.14 0.12 c0 0.02 0.02 0.04 0.04 0.06 z M81.53500000000001 4.48 c0.06 0.1 0.02 -0.08 0 0 l0 0 z M81.915 4.539999999999999 l0.04 0 l0 -0.06 l-0.04 0 l0 0.06 z M81.915 4.68 c0.06 0.04 0.06 -0.1 0 -0.08 l0 0.08 z M81.25500000000001 5.720000000000001 c-0.5 0.52 -0.52 1.54 -0.9 1.98 c-0.02 -0.04 0.06 0 0.06 0.02 c-0.08 0.14 -0.1 0.36 -0.24 0.46 c0.06 0.18 -0.1 0.48 -0.2 0.66 c-0.02 0.4 -0.2 0.86 -0.4 1.16 c0.06 0.02 0.08 -0.06 0.1 0 c-0.02 0.1 -0.06 0.2 -0.16 0.22 c0.02 0.02 0.08 0 0.06 0.08 c-0.22 0.66 -0.26 1.3 -0.52 1.92 c0.02 0.02 0.06 0.04 0.08 0.1 c-0.16 0.1 0 0.52 -0.2 0.68 c0.06 0.12 0 0.26 -0.08 0.32 c0.12 0.12 0.02 0.26 0 0.44 l-0.08 0 c0.02 0.26 -0.04 0.48 -0.04 0.76 c0.3 -0.44 0.38 -0.82 0.54 -1.24 c0.12 0.04 0.02 -0.16 0.14 -0.1 c0.02 0.06 -0.04 0.04 -0.02 0.12 c0.06 -0.04 0.08 -0.1 0.12 -0.18 c-0.04 -0.06 -0.1 0.04 -0.12 -0.02 c0 -0.06 0.02 -0.1 0.04 -0.14 c0.04 0 0.04 0.02 0.08 0.02 c-0.08 -0.16 0.06 -0.44 0.16 -0.58 c0.26 -0.78 0.5 -1.5 0.8 -2.16 c-0.08 -0.1 -0.02 -0.3 0.1 -0.36 c-0.1 -0.3 0.22 -0.5 0.16 -0.84 c0.04 -0.06 0.1 0.04 0.12 -0.02 c-0.06 -0.04 0.04 -0.12 -0.04 -0.16 c0.02 -0.02 0.04 -0.04 0.08 -0.02 c0 -0.68 0.42 -1.18 0.44 -1.9 c0.2 -0.62 0.26 -1.2 0.44 -1.8 c-0.1 -0.1 0.02 -0.3 -0.08 -0.36 c-0.14 0.3 -0.38 0.62 -0.44 0.94 z M81.81500000000001 5.619999999999999 c0.1 -0.24 0.18 -0.62 0.1 -0.84 c-0.02 0.34 -0.06 0.52 -0.1 0.84 z M82.075 5.039999999999999 c0.02 -0.04 0.04 -0.04 0.02 -0.1 l-0.06 0 c0 0.04 0.02 0.08 0.04 0.1 z M82.055 5.16 c-0.06 0.08 0.08 -0.06 0 0 l0 0 z M82.055 5.4399999999999995 c-0.06 -0.04 0.06 -0.14 -0.04 -0.16 c0.02 0.06 -0.06 0.18 0.04 0.16 z M82.31500000000001 5.4 c-0.08 0.08 0.1 -0.1 0 0 l0 0 z M82.15500000000002 5.4399999999999995 l0.04 0 l0 -0.04 l-0.04 0 l0 0.04 z M81.73500000000001 5.960000000000001 c0.06 -0.06 0.16 -0.28 0.06 -0.32 c-0.04 0.08 -0.04 0.2 -0.06 0.32 z M81.89500000000001 5.960000000000001 c0.08 -0.02 0.16 -0.28 0.04 -0.28 c0.02 0.12 -0.02 0.18 -0.04 0.28 z M81.01500000000001 5.74 c0.02 0 0 -0.02 0 0 l0 0 z M82.055 6.02 l0.04 0 l0 -0.04 l-0.04 0 l0 0.04 z M81.69500000000001 6.140000000000001 c0.08 0.02 0.1 -0.14 0.02 -0.14 c0 0.06 0 0.12 -0.02 0.14 z M81.855 6.119999999999999 c0.1 0 0.14 -0.12 0.04 -0.12 c0 0.06 -0.06 0.06 -0.04 0.12 z M80.355 6.1 c0.02 0 -0.02 -0.02 0 0 l0 0 z M82.15500000000002 6.220000000000001 c0.02 0 -0.02 -0.02 0 0 l0 0 z M81.715 6.24 c0 -0.02 -0.06 -0.04 -0.06 0 c-0.02 0.06 0.08 0.06 0.06 0 z M81.53500000000001 7.039999999999999 c0 -0.18 0.22 -0.56 0.12 -0.7 c-0.02 0.26 -0.2 0.46 -0.12 0.7 z M80.23500000000001 6.4 c0.02 0.02 -0.02 0 0 0 l0 0 z M81.79500000000002 6.460000000000001 l0.04 0 l0 -0.06 l-0.04 0 l0 0.06 z M82.09500000000001 6.5600000000000005 c0.02 0 0 -0.02 0 0 l0 0 z M80.11500000000001 6.720000000000001 l0.04 0 l0 -0.04 l-0.04 0 l0 0.04 z M81.73500000000001 6.720000000000001 c0.02 0.02 0 -0.02 0 0 l0 0 z M81.915 6.800000000000001 l0.04 0 l0 -0.06 l-0.04 0 l0 0.06 z M81.69500000000001 6.960000000000001 c-0.08 0.1 -0.1 0.28 -0.12 0.38 c0.08 -0.08 0.16 -0.26 0.12 -0.38 c0.06 -0.02 0.06 -0.1 0.08 -0.16 c-0.1 -0.02 -0.08 0.08 -0.08 0.16 z M81.855 6.98 c0.02 0.02 0 0 0 0 l0 0 z M80.33500000000001 7.039999999999999 c-0.04 -0.02 -0.04 -0.04 -0.08 -0.04 c-0.04 0.06 0.08 0.08 0.08 0.04 z M79.995 7.119999999999999 c0 -0.02 0 -0.04 0.02 -0.06 l-0.04 0 c-0.04 0.02 -0.04 0.06 0.02 0.06 z M80.09500000000001 7.08 l0 0 c0.08 -0.1 -0.1 0.08 0 0 z M80.17500000000001 7.08 c0.1 0.02 0.02 -0.08 0 0 l0 0 z M81.37500000000001 7.18 c-0.02 0.06 0.04 0.06 0.06 0.1 c0 0.02 -0.02 0.02 -0.02 0.04 c0.08 0.02 0.1 -0.16 0.02 -0.16 c0 0 -0.02 0.02 -0.06 0.02 z M81.355 7.58 l-0.04 0 l0 0.06 c0.04 0 0.04 -0.02 0.04 -0.06 c0.1 -0.06 0.04 -0.12 0.08 -0.22 c-0.1 0 -0.06 0.14 -0.08 0.22 z M81.89500000000001 7.4399999999999995 l0.04 0 c0.04 -0.06 -0.08 -0.08 -0.08 -0.02 c0.02 0 0.04 0 0.04 0.02 z M80.15500000000002 7.4399999999999995 l0 0.04 l0.06 0 c0 0 0 -0.02 0.02 -0.02 l0 -0.04 l-0.06 0 c0 0 0 0.02 -0.02 0.02 z M81.37500000000001 8.06 c0.12 -0.16 0.24 -0.42 0.18 -0.64 c-0.08 0.2 -0.12 0.48 -0.18 0.64 z M81.935 7.52 c0.02 0 0 -0.02 0 0 l0 0 z M80.055 7.539999999999999 c-0.04 0.08 0.08 -0.06 0 0 l0 0 z M80.29500000000002 7.58 c0.02 -0.02 0.02 -0.02 0.04 -0.02 c0 -0.04 -0.02 -0.06 -0.06 -0.04 c0 0.02 0 0.06 0.02 0.06 z M81.855 7.640000000000001 c0.02 -0.06 0.06 -0.12 -0.02 -0.12 c-0.02 0.02 -0.04 0.1 0.02 0.12 z M79.775 7.58 c0.04 0.08 0.06 -0.1 0 0 l0 0 z M79.81500000000001 7.68 c0.04 0.04 0.1 0 0.1 -0.08 c-0.04 0.02 -0.1 0.02 -0.1 0.08 z M81.81500000000001 7.68 c0.02 0.02 0 -0.02 0 0 l0 0 z M81.31500000000001 7.76 c-0.06 0.1 -0.1 0.26 -0.12 0.4 c0.1 -0.08 0.14 -0.3 0.12 -0.4 l0.02 0 c0 -0.04 0.02 -0.04 0.02 -0.04 l0 -0.04 c-0.04 -0.02 -0.04 0.04 -0.04 0.08 z M79.75500000000001 7.800000000000001 c0 -0.04 0.04 -0.04 0.04 -0.08 c-0.04 -0.02 -0.1 0.06 -0.04 0.08 z M80.09500000000001 7.82 l0.04 0 l0 -0.04 l-0.04 0 l0 0.04 z M79.79500000000002 7.9 c0.02 0 0 -0.02 0 0 l0 0 z M80.03500000000001 8 l0.06 0 l0 -0.06 l-0.06 0 l0 0.06 z M81.67500000000001 8.14 c0.08 0.04 0.12 -0.16 0.02 -0.14 c0.02 0.06 -0.04 0.06 -0.02 0.14 z M79.53500000000001 8.24 c0.08 -0.02 0.18 -0.2 0.08 -0.22 c0 0.1 -0.06 0.14 -0.08 0.22 z M81.31500000000001 8.2 c0.08 0.02 0.08 -0.04 0.1 -0.06 c-0.06 0 -0.12 0 -0.1 0.06 z M79.97500000000001 8.26 c0.06 0.02 0.12 -0.08 0.06 -0.1 c0.02 0.06 -0.08 0.02 -0.06 0.1 z M81.575 8.18 c0.06 0.1 0.04 -0.08 0 0 l0 0 z M79.69500000000001 8.2 c0.02 0.02 0 0 0 0 l0 0 z M81.075 8.54 c0.08 -0.04 0.16 -0.3 0.1 -0.34 c-0.04 0.12 -0.06 0.24 -0.1 0.34 z M80.01500000000001 8.32 c0.02 0.02 0 0 0 0 l0 0 z M81.17500000000001 8.78 c0.08 -0.08 0.16 -0.36 0.12 -0.46 c-0.06 0.18 -0.1 0.24 -0.12 0.46 z M81.415 8.42 c0.06 0.1 0.02 -0.08 0 0 l0 0 z M79.51500000000001 8.44 l0 0 c0.04 -0.12 -0.06 0.12 0 0 z M79.69500000000001 8.62 c0.02 -0.02 0.12 -0.12 0 -0.12 c0.02 0.04 -0.06 0.1 0 0.12 z M79.435 8.62 l0.06 0 l0 -0.06 l-0.06 0 l0 0.06 z M81.075 8.62 c0.06 0.08 0.04 -0.08 0 0 l0 0 z M81.31500000000001 8.76 c0 -0.02 0 -0.04 0.02 -0.02 c0 -0.04 0 -0.06 -0.04 -0.06 c0 0.04 -0.02 0.08 0.02 0.08 z M79.635 8.76 c0.02 0.02 -0.02 -0.02 0 0 l0 0 z M80.81500000000001 9.58 c0.02 -0.3 0.24 -0.54 0.18 -0.82 c-0.04 0.28 -0.24 0.52 -0.18 0.82 z M79.73500000000001 8.92 c0 -0.04 0.08 -0.1 0 -0.12 c-0.02 0.06 -0.08 0.1 0 0.12 z M79.75500000000001 9.08 c0.08 -0.04 0.1 -0.14 0.14 -0.22 c-0.1 0.02 -0.1 0.12 -0.14 0.22 z M80.89500000000001 9.68 c-0.08 0.14 -0.12 0.26 -0.16 0.48 c0.12 -0.06 0.08 -0.24 0.22 -0.28 c-0.02 -0.02 -0.1 0 -0.1 -0.04 c0.06 -0.04 0.08 -0.1 0.04 -0.16 c0.16 -0.2 0.18 -0.54 0.3 -0.78 c-0.02 -0.02 -0.02 -0.06 -0.08 -0.04 c0.02 0.16 -0.22 0.58 -0.22 0.82 z M79.435 8.98 c0.08 -0.02 0.12 -0.06 0.14 -0.1 l-0.14 0 l0 0.1 z M81.25500000000001 8.92 l0.06 0 l0 -0.04 l-0.06 0 l0 0.04 z M79.31500000000001 8.96 c0.04 0 0.06 -0.02 0.08 -0.06 c-0.04 0 -0.06 0.02 -0.08 0.06 z M79.67500000000001 9.02 c0.04 0.1 0.04 -0.1 0 0 l0 0 z M79.53500000000001 9.04 c-0.04 0.02 0 0.04 0 0 c0.04 0 0 -0.02 0 0 z M81.31500000000001 9.1 c0.02 0 -0.02 -0.02 0 0 l0 0 z M79.275 9.1 l0 0.02 c-0.06 0.14 0.12 -0.14 0 -0.02 z M79.37500000000001 9.12 c0.1 0.02 0 -0.08 0 0 l0 0 z M79.635 9.1 c-0.02 0.14 0.1 0 0 0 l0 0 z M79.495 9.2 c0 0 -0.02 -0.02 0 0 l0 0 z M79.61500000000001 9.34 c0.02 -0.04 0.02 -0.08 0.02 -0.12 c-0.1 -0.02 -0.1 0.12 -0.02 0.12 z M79.67500000000001 9.34 c0.06 0 0.06 -0.06 0.08 -0.1 c-0.06 0 -0.06 0.04 -0.08 0.1 z M79.39500000000001 9.44 c0.08 0 0.12 -0.12 0.04 -0.12 c-0.02 0.02 -0.02 0.08 -0.04 0.12 z M79.19500000000001 9.34 c-0.08 0.1 0.14 0.02 0 0 l0 0 z M79.575 9.6 c0.12 0 0.12 -0.12 0.08 -0.16 c-0.02 0.04 -0.04 0.12 -0.08 0.16 z M79.39500000000001 9.58 c0.06 0.02 0.06 -0.12 0 -0.08 l0 0.08 z M79.53500000000001 9.56 l-0.04 0 l0 0.04 c0.04 0 0.04 -0.02 0.04 -0.04 c0.1 -0.02 0 -0.12 0 0 z M81.055 9.58 c0 0 -0.02 -0.02 0 0 l0 0 z M81.215 9.64 c0.06 0.02 0.1 -0.08 0.04 -0.08 c0 0.02 -0.06 0.02 -0.04 0.08 z M79.275 9.6 c0.02 0.02 -0.02 -0.02 0 0 l0 0 z M79.215 9.64 c0.04 0.1 0.04 -0.08 0 0 l0 0 z M80.75500000000001 9.72 c0 -0.04 -0.02 -0.06 -0.04 -0.08 c-0.04 0.04 -0.04 0.1 0.04 0.08 z M79.495 9.82 l0 -0.1 c-0.1 -0.02 -0.1 0.12 0 0.1 z M79.555 9.72 c-0.08 0.12 0.14 0.04 0 0 l0 0 z M80.61500000000001 10.08 c0.08 -0.08 0.12 -0.26 0.08 -0.32 c-0.08 0.1 -0.08 0.2 -0.08 0.32 z M81.11500000000001 9.86 c0.02 -0.06 0 -0.08 -0.04 -0.1 c-0.04 0.04 -0.02 0.12 0.04 0.1 z M79.25500000000001 9.96 c0.06 0.04 0.06 -0.1 0 -0.08 l0 0.08 z M79.39500000000001 9.96 c0.1 0.02 0 -0.08 0 0 l0 0 z M79.135 9.98 c0.06 0.1 0.02 -0.08 0 0 l0 0 z M79.435 10.3 c0.02 -0.12 0.12 -0.24 0.02 -0.3 c-0.02 0.12 -0.06 0.2 -0.02 0.3 z M79.17500000000001 10.34 c0.02 -0.1 0.1 -0.24 0.08 -0.3 c-0.06 0.04 -0.16 0.26 -0.08 0.3 z M79.055 10.2 c0.06 0.02 0.1 -0.1 0.04 -0.12 c0 0.04 -0.04 0.06 -0.04 0.12 z M80.53500000000001 10.32 c0.06 -0.02 0.16 -0.2 0.04 -0.2 z M78.935 10.24 c0.06 0.02 0.08 -0.02 0.08 -0.08 c-0.08 -0.04 -0.04 0.06 -0.08 0.08 z M81.075 10.18 c-0.06 0.08 0.08 -0.06 0 0 l0 0 z M80.935 10.22 l0.06 0 c0 -0.04 -0.02 -0.06 -0.06 -0.04 l0 0.04 z M79.275 10.3 l0.06 0 c0 -0.04 0.04 -0.12 -0.04 -0.1 c0 0.04 -0.04 0.04 -0.02 0.1 z M80.73500000000001 10.4 c-0.02 -0.1 0.04 -0.12 0.02 -0.2 l-0.06 0 c0 0.1 -0.08 0.18 0.04 0.2 z M79.055 10.34 c0 -0.04 0.02 -0.06 0.02 -0.1 c-0.06 0 -0.08 0.1 -0.02 0.1 z M80.83500000000001 10.3 c0.08 0.08 0.04 -0.1 0 0 l0 0 z M80.495 10.36 l0 0.04 c-0.06 0.14 0.12 -0.16 0 -0.04 z M78.855 10.48 c0.1 0.02 0.1 -0.08 0.04 -0.08 c0 0.04 -0.04 0.04 -0.04 0.08 z M79.09500000000001 10.44 c0.06 0.02 0.1 0.04 0.16 0.04 c-0.02 -0.06 -0.14 -0.14 -0.16 -0.04 z M80.635 10.7 c-0.04 -0.08 0.06 -0.14 0.08 -0.24 c-0.04 0 -0.04 -0.02 -0.08 -0.02 c0 0.08 -0.14 0.24 0 0.26 z M80.45500000000001 10.7 c-0.06 -0.06 0.12 -0.2 0 -0.24 c-0.02 0.1 -0.14 0.28 0 0.24 z M81.055 10.48 c-0.1 0.12 0.14 0.04 0 0 l0 0 z M79.215 10.66 c0.02 -0.02 0.06 -0.12 -0.02 -0.1 c0 0.04 0 0.08 0.02 0.1 z M78.95500000000001 10.7 c0.04 -0.04 0.08 -0.1 0 -0.12 c0 0.02 -0.06 0.12 0 0.12 z M79.275 10.6 l0 0.06 l0.06 0 l0 -0.08 l-0.04 0 c0 0.02 0 0.04 -0.02 0.02 z M80.935 10.64 c0.02 0.08 0.02 -0.1 0 0 l0 0 z M78.855 10.7 c0.02 0.02 0 0 0 0 l0 0 z M79.29500000000002 10.82 c0.02 -0.04 0.04 -0.06 0.04 -0.1 c-0.02 0 -0.02 -0.02 -0.06 -0.02 c0 0.04 -0.04 0.12 0.02 0.12 z M78.915 10.88 c0 -0.06 0.04 -0.08 0.04 -0.12 c-0.02 -0.02 -0.02 -0.04 -0.06 -0.04 c0 0.04 -0.04 0.14 0.02 0.16 z M79.15500000000002 10.84 l0.04 0 s0.04 0 0.02 -0.02 c-0.04 0 0 -0.06 -0.04 -0.06 c0 0.02 -0.04 0.04 -0.02 0.08 z M80.51500000000001 10.84 c0.06 0.02 0.08 -0.02 0.08 -0.08 c-0.06 -0.02 -0.06 0.04 -0.08 0.08 z M79.01500000000001 10.82 l0.04 0 l0 -0.04 l-0.04 0 l0 0.04 z M78.79500000000002 10.82 c0.06 0.1 0.04 -0.08 0 0 l0 0 z M80.355 10.82 c-0.02 0.14 0.1 0.02 0 0 l0 0 z M80.81500000000001 10.94 c0.06 0.04 0.06 -0.1 0.02 -0.1 c-0.02 0.04 -0.04 0.06 -0.02 0.1 z M79.275 10.9 c0.02 0 -0.02 -0.02 0 0 l0 0 z M80.23500000000001 11.06 c0.02 0 0.08 0.06 0.1 0 c-0.08 0 -0.06 -0.12 0.02 -0.1 l0 -0.04 c-0.02 0 -0.04 -0.02 -0.06 -0.02 c-0.02 0.06 -0.06 0.08 -0.06 0.16 z M80.37500000000001 11.28 c0.1 -0.08 0.18 -0.26 0.16 -0.38 c-0.1 0.04 -0.16 0.3 -0.16 0.38 z M78.97500000000001 10.96 l0.06 0 l0 -0.04 l-0.06 0 l0 0.04 z M79.19500000000001 11 c0.02 0 0 -0.02 0 0 l0 0 z M78.775 11.06 c0 -0.06 -0.02 -0.08 -0.08 -0.06 c0 0.04 0.02 0.06 0.08 0.06 z M78.775 11.24 c0.08 0 0.16 -0.2 0.06 -0.22 c0 0.08 -0.06 0.12 -0.06 0.22 z M79.19500000000001 11.16 c0.02 -0.04 0.08 -0.04 0.06 -0.12 l-0.08 0 c0.02 0.04 -0.02 0.12 0.02 0.12 z M78.97500000000001 11.16 c0.02 -0.02 0.06 -0.12 -0.02 -0.1 c0 0.04 0 0.1 0.02 0.1 z M80.715 11.14 c0 -0.04 -0.02 -0.06 -0.06 -0.08 c0.02 0.04 0 0.08 0.06 0.08 z M79.09500000000001 11.12 c0.02 0 0 -0.02 0 0 l0 0 z M80.135 11.42 c0.08 0 0.2 -0.22 0.1 -0.26 c-0.02 0.1 -0.06 0.18 -0.1 0.26 z M79.135 11.3 l0.04 0 l0 -0.04 l-0.04 0 l0 0.04 z M80.65500000000002 11.3 c-0.02 0.04 -0.1 0.04 -0.08 0.1 c0.06 0 0.14 0.02 0.14 -0.04 l-0.06 -0.06 c0.08 0 -0.02 -0.1 0 0 z M78.855 11.32 l0 0.06 l0.06 0 c0.02 -0.04 0.02 -0.06 -0.02 -0.08 c0 0.02 -0.02 0.04 -0.04 0.02 z M78.73500000000001 11.38 c0.02 0 0 -0.02 0 0 l0 0 z M80.45500000000001 11.42 c-0.06 0 -0.06 -0.08 -0.12 -0.06 c-0.02 0.06 0.08 0.12 0.12 0.06 z M78.61500000000001 11.4 l0 0.04 l0.06 0 c0.02 -0.02 0.02 -0.06 -0.02 -0.06 c0 0 -0.02 0.02 -0.04 0.02 z M79.075 11.5 c0.1 0.04 0.14 -0.12 0.06 -0.12 c-0.04 0.02 -0.04 0.08 -0.06 0.12 z M78.715 11.52 c0.06 0 0.06 -0.02 0.1 -0.02 c0 0.02 0 0.04 0.02 0.04 c0.02 -0.04 0.1 -0.02 0.08 -0.12 c-0.1 0 -0.1 0.04 -0.18 0 c0 0.04 -0.02 0.04 -0.02 0.1 z M80.09500000000001 11.5 c-0.02 0 0 0.02 0 0.02 c-0.06 0.14 0.12 -0.14 0 -0.02 z M80.29500000000002 11.56 c0.02 -0.02 0.06 -0.04 0 -0.06 c0 0.02 -0.04 0.04 0 0.06 z M79.075 11.56 l0 0.06 l0.06 0 c0.02 -0.04 0.02 -0.06 -0.04 -0.08 c0 0.02 0 0.04 -0.02 0.02 z M80.495 11.64 c-0.02 0.08 0.04 0.1 0.08 0.12 c0.02 -0.06 0.06 -0.12 0.08 -0.2 c-0.12 0 -0.06 0.18 -0.16 0.08 z M80.03500000000001 11.68 c0.06 0.02 0.1 0 0.1 -0.06 c-0.02 0 -0.04 -0.04 -0.08 -0.02 c0.02 0.04 -0.02 0.04 -0.02 0.08 z M80.215 11.78 c0.08 0.02 0.12 -0.22 0.02 -0.18 c-0.02 0.1 -0.02 0.06 -0.02 0.18 z M78.555 11.86 c0.02 -0.08 0.08 -0.1 0.06 -0.2 c-0.08 0.02 -0.08 0.12 -0.06 0.2 z M78.79500000000002 11.68 c-0.06 0.08 0.08 -0.06 0 0 l0 0 z M80.39500000000001 11.76 l0 -0.04 c-0.04 -0.08 -0.12 0.06 0 0.04 z M78.89500000000001 11.8 c0.06 0.04 0.1 -0.08 0.04 -0.08 c0 0.04 -0.06 0.02 -0.04 0.08 z M79.03500000000001 11.76 l0.04 0 l0 -0.04 l-0.04 0 l0 0.04 z M80.635 11.8 l0.06 0 l0 -0.04 l-0.06 0 l0 0.04 z M78.73500000000001 11.98 c0.06 -0.08 0.04 -0.12 0.06 -0.2 c-0.12 0 -0.06 0.14 -0.06 0.2 z M80.135 11.98 l-0.02 0 c0.02 0.08 -0.12 0.14 -0.06 0.22 c0.04 -0.08 0.14 -0.16 0.08 -0.22 l0.02 0 c0 -0.1 0.08 -0.06 0.08 -0.14 c-0.08 0 -0.16 0.08 -0.1 0.14 z M78.95500000000001 12.04 c0.08 0.02 0.12 -0.14 0.02 -0.14 c0.02 0.08 -0.08 0.08 -0.02 0.14 z M79.89500000000001 12.16 c0.04 -0.02 0.14 -0.22 0.02 -0.26 c0.04 0.1 -0.1 0.22 -0.02 0.26 z M80.415 12.120000000000001 c0.04 -0.06 0.1 -0.16 -0.02 -0.16 c0.02 0.04 -0.02 0.14 0.02 0.16 z M78.45500000000001 12 c0.02 0.02 0 -0.02 0 0 l0 0 z M78.73500000000001 13.04 c0.16 -0.24 0.22 -0.68 0.2 -0.94 c-0.08 0.3 -0.12 0.66 -0.2 0.94 z M78.555 12.32 c0.02 -0.02 0.06 -0.16 -0.02 -0.12 c0 0.02 -0.04 0.12 0.02 0.12 z M78.47500000000001 12.32 c0.04 -0.04 0.02 -0.1 -0.04 -0.1 c0 0.04 0.02 0.08 0.04 0.1 z M80.33500000000001 12.32 c0.08 0 0.08 -0.1 0.02 -0.1 c0 0.04 -0.04 0.04 -0.02 0.1 z M79.97500000000001 12.379999999999999 c0.06 0 0.06 -0.06 0.06 -0.12 c-0.08 0 -0.08 0.06 -0.06 0.12 z M80.275 12.46 l0.06 0 l0 -0.1 l-0.06 0 l0 0.1 z M79.79500000000002 12.8 c0.12 -0.08 0.22 -0.26 0.12 -0.36 c-0.02 0.12 -0.1 0.22 -0.12 0.36 z M80.39500000000001 12.46 c0.02 0 0 -0.02 0 0 l0 0 z M80.17500000000001 12.620000000000001 c0.1 0.06 0.12 -0.14 0.04 -0.12 c0 0.06 -0.06 0.06 -0.04 0.12 z M78.435 12.64 c0.06 0.02 0.08 -0.02 0.06 -0.08 c-0.06 -0.02 -0.06 0.02 -0.06 0.08 z M78.555 12.620000000000001 c0.06 0 0.08 -0.04 0.1 -0.06 c-0.06 -0.02 -0.08 0.02 -0.1 0.06 z M78.715 12.620000000000001 c0.08 0.04 0.08 -0.1 0 -0.06 l0 0.06 z M80.275 12.74 c0.1 0 0.08 -0.1 0.12 -0.16 c-0.08 0 -0.08 0.1 -0.12 0.16 z M78.45500000000001 12.82 c0.02 -0.02 0.06 -0.12 -0.02 -0.1 c0 0.04 -0.02 0.08 0.02 0.1 z M79.61500000000001 12.8 c0.06 0.02 0.06 -0.12 0 -0.08 l0 0.08 z M78.31500000000001 12.84 c0.1 0.02 0 -0.08 0 0 l0 0 z M78.67500000000001 12.86 c0.02 0.02 -0.02 0 0 0 l0 0 z M79.75500000000001 12.940000000000001 c0.06 0 0.06 -0.06 0.06 -0.1 c-0.06 0 -0.06 0.04 -0.06 0.1 z M79.555 12.879999999999999 c0.02 0.02 0 0 0 0 l0 0 z M78.415 12.940000000000001 c0.02 0.08 0.06 -0.1 0 0 l0 0 z M78.495 12.98 c0.08 0.08 0.04 -0.08 0 0 l0 0 z M78.495 13.059999999999999 c0.04 0.08 0.04 -0.1 0 0 l0 0 z M78.61500000000001 13.059999999999999 l0 0.04 l0.06 0 c0.02 -0.04 0.02 -0.06 -0.02 -0.06 c0 0 -0.02 0.02 -0.04 0.02 z M79.635 13.219999999999999 c0.08 0.02 0.18 -0.14 0.06 -0.16 c0.02 0.08 -0.08 0.06 -0.06 0.16 z M78.61500000000001 13.84 c0.08 -0.22 0.18 -0.52 0.12 -0.74 c0 0.26 -0.14 0.52 -0.12 0.74 z M78.355 13.18 c0.02 0 0 -0.02 0 0 l0 0 z M78.45500000000001 13.2 c0.08 0.08 0.04 -0.08 0 0 l0 0 z M79.575 13.36 c0.1 0.02 0.1 -0.12 0.04 -0.12 c-0.02 0.04 -0.04 0.08 -0.04 0.12 z M78.575 13.32 c0.02 0.02 0 -0.02 0 0 l0 0 z M78.31500000000001 13.34 l0 0.06 l0.04 0 c0.04 -0.04 0.04 -0.06 -0.02 -0.08 c0 0.02 0 0.02 -0.02 0.02 z M78.435 13.36 l0.04 0 l0 -0.04 l-0.04 0 l0 0.04 z M79.995 13.42 l0.04 0 l0 -0.06 l-0.04 0 l0 0.06 z M78.435 13.42 c-0.02 0.14 0.1 0 0 0 l0 0 z M79.51500000000001 13.66 c0 -0.06 0.14 -0.2 0.02 -0.22 c-0.02 0.06 -0.14 0.18 -0.02 0.22 z M78.53500000000001 13.48 c0 0.02 -0.02 0 0 0 l0 0 z M79.995 13.46 c-0.1 0.12 0.14 0.04 0 0 l0 0 z M79.81500000000001 13.66 c0.02 -0.06 0.12 -0.14 0 -0.18 c-0.02 0.02 -0.04 0.16 0 0.18 z M78.25500000000001 13.6 c0.08 0.02 0.1 -0.1 0 -0.08 l0 0.08 z M78.555 13.66 c0.02 -0.08 -0.06 -0.06 -0.08 -0.08 c0 0.06 0.02 0.08 0.08 0.08 z M78.37500000000001 13.64 c0.08 0.06 0.04 -0.1 0 0 l0 0 z M78.33500000000001 13.84 c0.06 0.02 0.12 -0.14 0.02 -0.14 c0 0.06 -0.04 0.08 -0.02 0.14 z M79.415 13.76 c0.1 0.02 0 -0.08 0 0 l0 0 z M79.75500000000001 13.8 l0.06 0 c0.02 -0.06 -0.02 -0.08 -0.06 -0.08 l0 0.08 z M79.89500000000001 13.76 c-0.06 0.08 0.08 -0.06 0 0 l0 0 z M78.23500000000001 13.879999999999999 c-0.02 0 -0.04 0.04 -0.04 0.08 c0.06 0.04 0.04 -0.04 0.04 -0.08 c0.04 -0.04 0.06 -0.08 0.06 -0.12 c-0.1 -0.02 -0.08 0.06 -0.06 0.12 z M78.47500000000001 13.82 c0.08 0.04 0.08 -0.1 0 -0.06 l0 0.06 z M79.39500000000001 13.8 c0.02 0.1 0.02 -0.1 0 0 l0 0 z M79.135 13.940000000000001 c0.06 0.04 0.06 -0.1 0 -0.06 l0 0.06 z M79.37500000000001 13.9 c0.02 0.08 0.02 -0.1 0 0 l0 0 z M78.355 14.02 l0.08 0 c0 -0.06 -0.04 -0.08 -0.08 -0.1 c-0.04 0.04 0 0.02 0 0.1 z M78.435 15.280000000000001 c0.06 -0.48 0.2 -1 0.14 -1.36 c-0.06 0.5 -0.2 0.9 -0.14 1.36 z M79.275 14.02 l0 0.04 c0.06 0.04 0.06 -0.08 0.02 -0.06 c0 0 0 0.02 -0.02 0.02 z M78.19500000000001 14.08 c0.02 0.1 0.02 -0.08 0 0 l0 0 z M79.075 14.16 c-0.02 -0.04 0.08 -0.08 0 -0.1 c0 0.02 -0.06 0.1 0 0.1 z M78.31500000000001 14.18 l0.04 0 l0 -0.04 l-0.04 0 l0 0.04 z M78.415 14.16 l0 0.04 l0.04 0 c0 0 0 -0.02 0.02 -0.02 l0 -0.04 l-0.04 0 c0 0 0 0.02 -0.02 0.02 z M79.215 14.2 c0.08 0.04 0.08 -0.1 0 -0.06 l0 0.06 z M79.555 14.16 c-0.08 0.12 0.14 0.04 0 0 l0 0 z M78.415 14.26 l0 0.04 c0.06 0.04 0.06 -0.08 0.02 -0.06 c0 0 0 0.02 -0.02 0.02 z M79.67500000000001 14.36 c0.02 -0.12 -0.1 -0.06 -0.14 -0.1 c0 0.06 0.08 0.14 0.14 0.1 z M78.135 14.379999999999999 c0.08 0.04 0.08 -0.1 0.04 -0.1 c-0.02 0.04 -0.04 0.04 -0.04 0.1 z M79.135 14.36 c0.02 0 0.02 0 0.04 0.02 c0 -0.02 0.02 -0.04 0.02 -0.06 c-0.02 0 -0.02 -0.02 -0.04 -0.02 c0 0.02 -0.02 0.04 -0.02 0.06 z M78.415 14.54 c-0.02 -0.08 0.1 -0.16 0 -0.18 c-0.02 0.04 -0.12 0.14 0 0.18 z M79.495 14.5 c0 -0.04 0.04 -0.04 0.06 -0.06 c0.02 -0.04 0 -0.08 -0.04 -0.08 c0.04 0.08 -0.1 0.1 -0.02 0.14 z M79.435 14.4 c0.02 0.02 0 -0.02 0 0 l0 0 z M78.23500000000001 14.52 c0.06 0 0.08 -0.04 0.08 -0.1 c-0.06 0 -0.06 0.06 -0.08 0.1 z M78.11500000000001 14.559999999999999 l-0.02 0 c-0.04 0.04 -0.02 0.12 0.04 0.1 c0.02 -0.04 0 -0.06 -0.02 -0.1 l0.02 0 c0.02 0 0.06 -0.08 0 -0.08 c0 0.02 -0.02 0.04 -0.02 0.08 z M79.075 14.6 c0 -0.06 0.08 -0.1 0 -0.12 c-0.02 0.04 -0.08 0.1 0 0.12 z M79.37500000000001 14.5 c0 0 -0.02 -0.02 0 0 l0 0 z M79.65500000000002 14.54 c0.1 0.02 0 -0.06 0 0 l0 0 z M78.19500000000001 14.559999999999999 l0 0.06 l0.06 0 l0 -0.08 l-0.04 0 c0 0.02 0 0.04 -0.02 0.02 z M78.73500000000001 14.66 c0.02 -0.06 -0.02 -0.08 -0.06 -0.1 c0 0.06 0 0.1 0.06 0.1 z M79.61500000000001 14.719999999999999 c0 -0.04 0.04 -0.06 0.04 -0.08 c-0.02 0 -0.02 0 -0.02 -0.02 l-0.06 0 c0.02 0.04 0 0.08 0.04 0.1 z M79.03500000000001 14.68 c-0.08 0.08 -0.12 0.18 -0.18 0.3 l0.1 0 c-0.02 -0.16 0.1 -0.16 0.08 -0.3 c0.06 0 -0.02 -0.1 0 0 z M79.39500000000001 14.68 c0.02 0.02 -0.02 0 0 0 l0 0 z M79.51500000000001 14.68 c0.02 0.02 -0.02 0 0 0 l0 0 z M79.39500000000001 14.780000000000001 c0 -0.04 -0.02 -0.08 -0.06 -0.1 c-0.02 0.04 -0.02 0.1 0.06 0.1 z M78.09500000000001 14.76 c0.02 0.02 0 -0.02 0 0 l0 0 z M78.31500000000001 14.84 c0.06 0 0.08 -0.04 0.06 -0.1 c-0.06 -0.02 -0.06 0.04 -0.06 0.1 z M79.37500000000001 14.98 c0.02 -0.04 0.02 -0.1 -0.04 -0.1 c-0.02 0.04 -0.02 0.08 0.04 0.1 z M78.31500000000001 14.98 c0.04 0 0.06 -0.02 0.06 -0.06 c-0.02 0 -0.08 0 -0.06 0.06 z M79.215 15.02 c0.08 0.04 0.08 -0.1 0 -0.06 l0 0.06 z M78.715 15.280000000000001 c0.08 0 0.22 -0.18 0.1 -0.24 c0 0.12 -0.08 0.14 -0.1 0.24 z M78.055 15.1 c0.02 0.08 0.02 -0.1 0 0 l0 0 z M78.29500000000002 15.1 c0.06 0.08 0.04 -0.1 0 0 l0 0 z M79.17500000000001 15.1 c0.08 0.08 0.04 -0.1 0 0 l0 0 z M78.17500000000001 15.16 l0 0.06 c0.06 0.04 0.06 -0.08 0.02 -0.08 c0 0.02 0 0.04 -0.02 0.02 z M79.15500000000002 15.2 l0.04 0 l0 -0.06 l-0.04 0 l0 0.06 z M79.075 15.34 l0.06 0 l0 -0.06 l-0.06 0 l0 0.06 z M79.19500000000001 15.48 c0.04 -0.04 0.04 -0.1 -0.02 -0.1 c-0.04 0.04 -0.02 0.08 0.02 0.1 z M78.65500000000002 15.46 c0.1 0.02 0 -0.08 0 0 l0 0 z M79.075 15.46 c0.02 0 0 -0.02 0 0 l0 0 z M78.89500000000001 15.84 c0.02 0.1 0.02 -0.1 0 0 l0 0 z M78.715 16.16 c0.08 -0.02 0.06 -0.12 0.1 -0.18 c-0.08 0 -0.08 0.1 -0.1 0.18 z M78.73500000000001 16.34 l0.06 0 c0 -0.02 0.02 -0.02 0.02 -0.04 c-0.02 0 -0.04 -0.04 -0.08 -0.02 l0 0.06 z M83.69500000000001 16.78 c0.06 -0.04 0.1 -0.1 0.14 -0.18 c-0.08 0.04 -0.14 0.08 -0.14 0.18 z M83.47500000000001 16.92 c0.06 0.04 0.16 -0.06 0.18 -0.14 c-0.08 0.02 -0.12 0.08 -0.18 0.14 z M77.83500000000001 17.06 c0.04 0 0.08 -0.02 0.06 -0.06 c-0.06 -0.02 -0.04 0.04 -0.06 0.06 z M83.415 17.02 c0.04 0.08 0.04 -0.1 0 0 l0 0 z M83.53500000000001 17.16 c0.06 0 0.12 -0.12 0.08 -0.14 c-0.02 0.06 -0.14 0.08 -0.08 0.14 z M77.59500000000001 17.4 c0.1 -0.08 0.2 -0.18 0.26 -0.28 c-0.16 0.02 -0.18 0.18 -0.26 0.28 z M78.415 17.44 c0.06 0.04 0.06 -0.12 0.02 -0.12 c0 0.06 -0.04 0.06 -0.02 0.12 z M77.635 17.48 c-0.06 0.08 0.08 -0.06 0 0 l0 0 z M83.17500000000001 17.48 c-0.04 0.08 0.08 -0.06 0 0 l0 0 z M78.415 17.54 l0.04 0 l0 -0.04 l-0.04 0 l0 0.04 z M77.495 17.54 l0 0.06 l0.04 0 c0.02 -0.02 0.02 -0.04 0.04 -0.04 l0 -0.04 l-0.06 0 c0 0.02 0 0.02 -0.02 0.02 z M83.09500000000001 17.54 c-0.06 0.08 0.08 -0.06 0 0 l0 0 z M82.915 17.68 c0.08 0.02 0.08 -0.04 0.1 -0.06 c-0.06 0 -0.08 0.04 -0.1 0.06 z M82.67500000000001 17.8 c0.06 0.02 0.08 -0.04 0.1 -0.06 c-0.06 0 -0.08 0.04 -0.1 0.06 z M82.53500000000001 17.88 c0.02 -0.06 0.1 0.04 0.12 -0.04 c-0.02 -0.06 -0.2 0 -0.12 0.04 z M82.275 18 c0.08 -0.02 0.14 -0.04 0.16 -0.12 c-0.08 0.02 -0.12 0.06 -0.16 0.12 z M82.67500000000001 18.1 c0.06 0.08 0.04 -0.08 0 0 l0 0 z M82.81500000000001 18.16 c-0.04 0.08 0.08 -0.06 0 0 l0 0 z M78.79500000000002 18.2 c-0.02 -0.02 -0.06 -0.04 -0.08 0 s0.1 0.04 0.08 0 z M82.17500000000001 18.34 c0.1 -0.04 0.2 -0.06 0.24 -0.14 c-0.12 -0.1 -0.28 0.06 -0.24 0.14 z M81.935 18.44 c0.04 -0.04 0.16 0 0.14 -0.08 c-0.06 0 -0.16 -0.02 -0.14 0.08 z M82.495 18.38 c0.1 0.02 0 -0.06 0 0 l0 0 z M81.81500000000001 18.44 l0.08 0 c0 -0.06 -0.04 -0.06 -0.08 -0.06 l0 0.06 z M81.79500000000002 8.18 l0.04 0 l0 0.06 l-0.04 0 l0 -0.06 z M81.61500000000001 8.6 c0.02 -0.04 0.02 -0.06 0.06 -0.06 l0 0.06 l-0.06 0 z M80.87500000000001 11.14 c0.08 -0.06 -0.06 0.08 0 0 l0 0 z M80.61500000000001 11.98 c0.08 -0.06 -0.06 0.08 0 0 l0 0 z M79.09500000000001 12.2 c0.02 -0.06 0.1 -0.02 0.08 0.04 c-0.04 -0.02 -0.04 -0.04 -0.08 -0.04 z M80.135 13.48 c0.08 -0.02 0.04 0.08 0.02 0.1 c-0.04 0 -0.02 -0.06 -0.02 -0.1 z M79.87500000000001 13.940000000000001 c0 0.1 0 0.22 -0.1 0.22 c0 -0.1 0.04 -0.16 0.1 -0.22 z M78.79500000000002 16.7 l0.04 0 l0 0.06 l-0.04 0 l0 -0.06 z M83.39500000000001 17.6 l0.06 0 l0 0.04 c-0.02 0 -0.02 0 -0.04 0.02 l-0.04 0 l0 -0.04 c0.02 0 0.02 -0.02 0.02 -0.02 z"></path></g>
			</g>
		</svg>
	